<?xml version="1.0" encoding="utf-8"?>
<!-- Generator: Adobe Illustrator 24.2.2, SVG Export Plug-In . SVG Version: 6.00 Build 0)  -->
<svg version="1.1" id="Ebene_1" xmlns="http://www.w3.org/2000/svg" xmlns:xlink="http://www.w3.org/1999/xlink" x="0px" y="0px"
	 width="25px" height="25px" viewBox="0 0 25 25" style="enable-background:new 0 0 25 25;" xml:space="preserve">
<path d="M18.2,0H6.8C3,0,0,3,0,6.8v11.5C0,22,3,25,6.8,25h11.5c3.7,0,6.8-3,6.8-6.8V6.8C25,3,22,0,18.2,0z M23.5,18.2
	c0,2.9-2.4,5.3-5.3,5.3H6.8c-2.9,0-5.3-2.4-5.3-5.3V6.8c0-2.9,2.4-5.3,5.3-5.3h11.5c2.9,0,5.3,2.4,5.3,5.3V18.2z"/>
<path d="M12.5,5.7c-3.8,0-6.8,3.1-6.8,6.8s3.1,6.8,6.8,6.8s6.8-3.1,6.8-6.8S16.3,5.7,12.5,5.7z M12.5,17.9c-3,0-5.4-2.4-5.4-5.4
	c0-3,2.4-5.4,5.4-5.4c3,0,5.4,2.4,5.4,5.4C17.9,15.5,15.5,17.9,12.5,17.9z"/>
<path d="M19.5,3.2c-1.1,0-2,0.9-2,2c0,1.1,0.9,2,2,2s2-0.9,2-2S20.6,3.2,19.5,3.2z M19.5,5.8c-0.3,0-0.6-0.2-0.6-0.6
	c0-0.3,0.2-0.6,0.6-0.6c0.3,0,0.6,0.2,0.6,0.6C20.1,5.6,19.8,5.8,19.5,5.8z"/>
</svg>
