<?xml version="1.0" encoding="utf-8"?>
<!-- Generator: Adobe Illustrator 24.2.2, SVG Export Plug-In . SVG Version: 6.00 Build 0)  -->
<svg version="1.1" id="Ebene_1" xmlns="http://www.w3.org/2000/svg" xmlns:xlink="http://www.w3.org/1999/xlink" x="0px" y="0px"
	 width="25px" height="25px" viewBox="0 0 25 25" style="enable-background:new 0 0 25 25;" xml:space="preserve">
<g>
	<g>
		<path d="M22.1,0H2.9C1.3,0,0,1.3,0,2.9v19.1C0,23.7,1.3,25,2.9,25h19.1c1.6,0,2.9-1.3,2.9-2.9V2.9C25,1.3,23.7,0,22.1,0z M23,22.1
			c0,0.5-0.4,1-1,1h-5.6v-8h3l0.5-3h-3.5V10c0-0.8,0.6-1.5,1.5-1.5h2v-3h-2c-2.5,0-4.5,2-4.5,4.5v2.1h-2.9v3h2.9v8H2.9
			c-0.5,0-1-0.4-1-1V2.9c0-0.5,0.4-1,1-1h19.1c0.5,0,1,0.4,1,1V22.1z"/>
	</g>
</g>
</svg>
