<?xml version="1.0" encoding="utf-8"?>
<!-- Generator: Adobe Illustrator 24.2.1, SVG Export Plug-In . SVG Version: 6.00 Build 0)  -->
<svg version="1.1" id="Ebene_1" xmlns="http://www.w3.org/2000/svg" xmlns:xlink="http://www.w3.org/1999/xlink" x="0px" y="0px"
	 width="100px" height="179px" viewBox="0 0 100 179" style="enable-background:new 0 0 100 179;" xml:space="preserve">
<style type="text/css">
	.st0{fill:#FFFFFF;}
	.st1{fill:url(#SVGID_1_);}
	.st2{fill:#553C37;}
</style>
<circle class="st0" cx="45.2" cy="44.6" r="43.9"/>
<g>
	<radialGradient id="SVGID_1_" cx="43.4653" cy="44.5707" r="39.6221" gradientUnits="userSpaceOnUse">
		<stop  offset="0.589" style="stop-color:#AAB500"/>
		<stop  offset="0.6492" style="stop-color:#A5AE03"/>
		<stop  offset="0.7364" style="stop-color:#979A0C"/>
		<stop  offset="0.8402" style="stop-color:#817B1B"/>
		<stop  offset="0.9557" style="stop-color:#624F2F"/>
		<stop  offset="1" style="stop-color:#553C37"/>
	</radialGradient>
	<path class="st1" d="M82.2,28.4C76,14.1,61.7,4.1,45.1,4.1C22.8,4.1,4.7,22.2,4.7,44.6S22.8,85,45.1,85c10.2,0,19.4-3.8,26.5-9.9
		c-3.4,0.8-6.3,0.9-7.6,1.1c-0.9,0.1-23.2,0.1-24.3,0c-1.8-0.3-2-2.6-1.1-3.7c1.5-1.8,3.5-0.3,2.9-2.3c-0.6-2.1-4.5-4.8-3.5-11.2
		c0.7-4.2,4.2-6.5,6.5-7.7c-3.6,0-4.6,4.3-9.6,5.3c-2.5,0.5-4.8-0.7-6.9-2.8c-3-3-3.4-5.8-7.6-5.8c-0.9,0-1.4-1-1.3-2
		c-0.3,0.2-0.7,0.4-1.1,0.5c-1.9,0.5-3.8-0.3-4.3-2.3c-0.7-2.5,2-4.3,2.4-4.8c0.5,0.3,3.8,0.4,4.5,2.9c0.2,0.6,0.2,1.1,0,1.6
		c0.3-0.1,0.6-0.2,1-0.3c3.8-0.5,10.2,3.2,10.2-1c-2.4,0.8-9.2,0-10.8-1.9c-1.3-1.6-1.5-12.2,5.9-16.7c4.8-2.9,11.3-2.6,14.6,2.9
		c2.4,4.2,1.1,8.6,7.1,9.8c6.4,1.3,21.3,3.2,23.3,18c1.2,8.5-2.9,13.3-3.4,14.8c1.5-1.6,5.6-7.2,4.4-16.5
		C71.5,41.7,73.7,31.7,82.2,28.4z M33.3,21.2c-1.2,0-3-1.2-2.9-4.1c0.2-2.7,2.2-5.7,2.8-6.8c0.4,0.6,0.9,1.4,1.4,2.4
		c-0.8,1.4-1.6,3.1-1.7,4.9c0,0.1,0,0.3,0,0.4c0,1.4,0.4,2.4,0.9,3.1C33.6,21.2,33.4,21.2,33.3,21.2z M37.3,22.3
		c-1.2,0-3.2-1.2-3-4.3c0.2-2.9,2.2-6,2.9-7.2c0.1,0.2,2.9,4.3,3.1,7.2C40.5,21.1,38.5,22.3,37.3,22.3z M26.8,30.8
		c0,1.1,0.9,2.1,2.1,2.1c1.1,0,2.1-0.9,2.1-2.1c0-1.1-0.9-2.1-2.1-2.1C27.7,28.7,26.8,29.6,26.8,30.8z"/>
	<path class="st2" d="M45.1,89.1c-24.6,0-44.6-20-44.6-44.6S20.6,0,45.1,0c24.6,0,44.6,20,44.6,44.6S69.7,89.1,45.1,89.1z M45.1,1.9
		C21.6,1.9,2.5,21.1,2.5,44.6s19.1,42.6,42.6,42.6c23.5,0,42.6-19.1,42.6-42.6S68.7,1.9,45.1,1.9z"/>
	<g>
		<path class="st2" d="M97.1,145.5c-0.4,0-0.8-0.1-1.2-0.2c-0.4-0.1-0.7-0.4-0.9-0.6c-0.3-0.3-0.4-0.6-0.6-0.9
			c-0.1-0.4-0.2-0.7-0.2-1.2c0-0.4,0.1-0.8,0.2-1.1c0.1-0.4,0.3-0.7,0.6-0.9c0.3-0.3,0.6-0.5,0.9-0.6c0.4-0.1,0.8-0.2,1.2-0.2
			c0.4,0,0.8,0.1,1.2,0.2c0.4,0.1,0.7,0.3,0.9,0.6c0.3,0.3,0.4,0.6,0.6,0.9c0.1,0.4,0.2,0.7,0.2,1.2c0,0.4-0.1,0.8-0.2,1.2
			c-0.1,0.4-0.3,0.7-0.6,0.9c-0.3,0.3-0.6,0.5-0.9,0.6C97.9,145.5,97.5,145.5,97.1,145.5z M97.1,145.1c0.4,0,0.7-0.1,1-0.2
			c0.3-0.1,0.5-0.3,0.7-0.5c0.2-0.2,0.4-0.5,0.5-0.8c0.1-0.3,0.2-0.6,0.2-1c0-0.3-0.1-0.7-0.2-1c-0.1-0.3-0.3-0.6-0.5-0.8
			c-0.2-0.2-0.5-0.4-0.7-0.5c-0.3-0.1-0.6-0.2-1-0.2c-0.4,0-0.7,0.1-1,0.2c-0.3,0.1-0.5,0.3-0.7,0.5c-0.2,0.2-0.4,0.5-0.5,0.8
			c-0.1,0.3-0.2,0.6-0.2,1c0,0.3,0.1,0.7,0.2,1c0.1,0.3,0.3,0.6,0.5,0.8c0.2,0.2,0.5,0.4,0.7,0.5C96.4,145,96.7,145.1,97.1,145.1z
			 M96.2,141.1c0.1,0,0.2,0,0.4,0c0.1,0,0.3,0,0.4,0c0.1,0,0.3,0,0.4,0c0.1,0,0.3,0.1,0.4,0.1c0.1,0.1,0.2,0.2,0.3,0.3
			c0.1,0.1,0.1,0.3,0.1,0.4c0,0.1,0,0.2-0.1,0.3c0,0.1-0.1,0.2-0.1,0.3c-0.1,0.1-0.1,0.1-0.2,0.2c-0.1,0-0.1,0.1-0.2,0.1l0.9,1.2
			c-0.1,0-0.1,0-0.2,0c0,0-0.1,0-0.1,0c0,0-0.1,0-0.1,0c0,0-0.1,0-0.1,0l-1-1.4l0.2-0.1c0.1,0,0.1-0.1,0.2-0.1
			c0.1,0,0.1-0.1,0.2-0.1c0.1-0.1,0.1-0.1,0.2-0.2c0-0.1,0.1-0.1,0.1-0.2c0-0.2-0.1-0.3-0.2-0.4c-0.1-0.1-0.3-0.1-0.5-0.1
			c-0.1,0-0.2,0-0.3,0v2.6c0,0-0.1,0-0.1,0c0,0-0.1,0-0.1,0c-0.1,0-0.1,0-0.1,0c0,0-0.1,0-0.1,0V141.1z"/>
	</g>
	<g>
		<path class="st2" d="M0,111.5c0.4-0.1,0.7-0.1,1-0.1c0.3,0,0.7,0,1,0c0.3,0,0.6,0,1,0c0.3,0,0.7,0.1,1,0.1v20.4
			c-0.4,0.1-0.7,0.1-1,0.1c-0.3,0-0.7,0-1,0s-0.7,0-1,0c-0.3,0-0.7-0.1-1-0.1V111.5z M4.8,121.7l5.5-10.1c0.4-0.1,0.8-0.1,1.2-0.1
			c0.4,0,0.7,0,1,0c0.3,0,0.7,0,1.1,0.1c0.4,0,0.8,0.1,1.2,0.1l-5.6,9.8l6,10.5c-0.4,0-0.9,0.1-1.3,0.1c-0.4,0-0.8,0.1-1.1,0.1
			c-0.3,0-0.6,0-1,0c-0.4,0-0.8-0.1-1.2-0.1L4.8,121.7z"/>
		<path class="st2" d="M26,111.6h11.5c0.1,0.6,0.2,1.1,0.2,1.7c0,0.6-0.1,1.2-0.2,1.8h-7.4v4.4H36c0.1,0.6,0.2,1.2,0.2,1.8
			c0,0.6-0.1,1.2-0.2,1.8h-5.9v5.4h7.6c0.1,0.6,0.2,1.1,0.2,1.7c0,0.6-0.1,1.2-0.2,1.8H26V111.6z"/>
		<path class="st2" d="M49.7,111.6c0.8-0.1,1.6-0.2,2.3-0.2c0.7-0.1,1.5-0.1,2.4-0.1c1,0,2.1,0.1,3.1,0.3c1,0.2,1.9,0.5,2.7,1
			c0.8,0.5,1.5,1.1,2,2c0.5,0.8,0.7,1.9,0.7,3.1c0,0.8-0.1,1.4-0.3,2c-0.2,0.6-0.4,1.1-0.7,1.5c-0.3,0.4-0.6,0.8-0.9,1.1
			c-0.3,0.3-0.7,0.6-1,0.7l-0.5,0.3l4.9,8.6c-0.4,0-0.8,0.1-1.2,0.1c-0.4,0-0.8,0.1-1.3,0.1c-0.7,0-1.4-0.1-2.1-0.2l-5.3-9.4
			l0.7-0.3c0.3-0.1,0.6-0.3,1-0.5c0.4-0.2,0.7-0.5,1.1-0.8c0.3-0.3,0.6-0.7,0.9-1.1c0.2-0.4,0.4-1,0.4-1.6c0-1.2-0.3-2.1-1-2.6
			c-0.7-0.6-1.6-0.8-2.6-0.8c-0.4,0-0.8,0-1.1,0.1v17.2c-0.3,0-0.7,0.1-1,0.1c-0.3,0-0.7,0-1,0c-0.3,0-0.7,0-1,0
			c-0.4,0-0.7-0.1-1.1-0.1V111.6z"/>
		<path class="st2" d="M75.3,111.6c0.6-0.1,1.1-0.2,1.7-0.2c0.6,0,1.1,0.1,1.8,0.2l7.9,12.9v-12.9c0.7-0.1,1.3-0.2,2-0.2
			c0.6,0,1.1,0.1,1.7,0.2v20.3c-0.6,0.1-1.1,0.2-1.6,0.2c-0.5,0-1.1-0.1-1.7-0.2L78.9,119v12.9c-0.6,0.1-1.2,0.2-1.8,0.2
			c-0.6,0-1.2-0.1-1.8-0.2V111.6z"/>
		<path class="st2" d="M1.9,152.6c0,1.8,0.4,3.2,1.3,4.1C4,157.6,5.3,158,7,158c0.7,0,1.3-0.1,1.9-0.2c0.6-0.1,1.2-0.3,1.7-0.5
			c0.1,0.2,0.2,0.4,0.2,0.7c0.1,0.3,0.1,0.6,0.1,0.8c-0.5,0.2-1.1,0.4-1.8,0.5c-0.7,0.1-1.5,0.2-2.3,0.2c-1.2,0-2.2-0.2-3.1-0.5
			c-0.9-0.4-1.6-0.8-2.1-1.5c-0.6-0.6-1-1.4-1.2-2.3c-0.3-0.9-0.4-1.8-0.4-2.9c0-1,0.1-2,0.4-2.9s0.6-1.7,1.1-2.3
			c0.5-0.7,1.1-1.2,1.9-1.6c0.8-0.4,1.7-0.6,2.8-0.6c0.9,0,1.7,0.2,2.4,0.5c0.7,0.3,1.3,0.7,1.8,1.3c0.5,0.6,0.8,1.2,1.1,2
			c0.2,0.8,0.4,1.6,0.4,2.5c0,0.2,0,0.4,0,0.6c0,0.3,0,0.5,0,0.7H1.9z M10.1,151.1c0-0.6-0.1-1.1-0.2-1.7c-0.1-0.5-0.4-1-0.7-1.4
			c-0.3-0.4-0.7-0.7-1.2-1c-0.5-0.3-1.1-0.4-1.8-0.4c-1.3,0-2.3,0.4-3,1.2c-0.7,0.8-1.1,1.9-1.3,3.3H10.1z"/>
		<path class="st2" d="M16.1,145.4c0.1,0,0.3,0,0.4,0c0.1,0,0.3,0,0.4,0c0.1,0,0.3,0,0.4,0c0.1,0,0.3,0,0.4,0c0,0.3,0.1,0.7,0.1,1.2
			c0,0.5,0,0.9,0,1.3c0.2-0.3,0.4-0.7,0.7-1c0.3-0.3,0.6-0.6,1-0.9c0.4-0.3,0.8-0.5,1.3-0.7c0.5-0.2,1.1-0.3,1.7-0.3
			c1.6,0,2.8,0.5,3.5,1.4c0.7,1,1.1,2.3,1.1,4v8.8c-0.1,0-0.3,0-0.4,0c-0.2,0-0.3,0-0.4,0c-0.1,0-0.2,0-0.4,0c-0.2,0-0.4,0-0.5,0
			v-8.2c0-1.5-0.2-2.6-0.7-3.3c-0.5-0.7-1.2-1-2.2-1c-0.6,0-1.2,0.1-1.8,0.4c-0.6,0.3-1,0.6-1.5,1.1s-0.7,1.1-1,1.8
			c-0.2,0.7-0.4,1.5-0.4,2.4v6.8c-0.1,0-0.3,0-0.4,0c-0.2,0-0.3,0-0.4,0c-0.1,0-0.2,0-0.4,0c-0.2,0-0.4,0-0.5,0V145.4z"/>
		<path class="st2" d="M33,152.6c0,1.8,0.4,3.2,1.3,4.1c0.9,0.9,2.1,1.3,3.8,1.3c0.7,0,1.3-0.1,1.9-0.2c0.6-0.1,1.2-0.3,1.7-0.5
			c0.1,0.2,0.2,0.4,0.2,0.7c0.1,0.3,0.1,0.6,0.1,0.8c-0.5,0.2-1.1,0.4-1.8,0.5c-0.7,0.1-1.5,0.2-2.3,0.2c-1.2,0-2.2-0.2-3.1-0.5
			c-0.9-0.4-1.6-0.8-2.1-1.5c-0.6-0.6-1-1.4-1.2-2.3c-0.3-0.9-0.4-1.8-0.4-2.9c0-1,0.1-2,0.4-2.9c0.2-0.9,0.6-1.7,1.1-2.3
			c0.5-0.7,1.1-1.2,1.9-1.6c0.8-0.4,1.7-0.6,2.8-0.6c0.9,0,1.7,0.2,2.4,0.5c0.7,0.3,1.3,0.7,1.8,1.3c0.5,0.6,0.8,1.2,1.1,2
			c0.2,0.8,0.4,1.6,0.4,2.5c0,0.2,0,0.4,0,0.6c0,0.3,0,0.5,0,0.7H33z M41.2,151.1c0-0.6-0.1-1.1-0.2-1.7c-0.1-0.5-0.4-1-0.7-1.4
			c-0.3-0.4-0.7-0.7-1.2-1c-0.5-0.3-1.1-0.4-1.8-0.4c-1.3,0-2.3,0.4-3,1.2c-0.7,0.8-1.1,1.9-1.3,3.3H41.2z"/>
		<path class="st2" d="M47.2,145.4c0.1,0,0.3,0,0.4,0c0.1,0,0.3,0,0.4,0c0.1,0,0.3,0,0.4,0c0.1,0,0.3,0,0.4,0c0,0.3,0.1,0.7,0.1,1.2
			c0,0.4,0,0.8,0,1.2c0.4-0.7,0.9-1.2,1.5-1.7c0.7-0.5,1.5-0.7,2.6-0.7c0.1,0,0.2,0,0.3,0c0.1,0,0.2,0,0.3,0
			c0.1,0.3,0.1,0.6,0.1,0.9c0,0.3,0,0.6-0.1,0.8c-0.1,0-0.3,0-0.3,0c-0.1,0-0.2,0-0.3,0c-1.2,0-2.2,0.4-3,1.2
			c-0.7,0.8-1.1,2.1-1.1,3.9v7.1c-0.1,0-0.3,0-0.4,0c-0.2,0-0.3,0-0.4,0c-0.1,0-0.2,0-0.4,0c-0.2,0-0.4,0-0.5,0V145.4z"/>
		<path class="st2" d="M63.8,157.9c1.6,0,2.7,0.4,3.4,1c0.7,0.6,1,1.5,1,2.5c0,0.7-0.2,1.3-0.5,1.9c-0.4,0.6-0.9,1.1-1.5,1.5
			c-0.7,0.4-1.4,0.7-2.3,1c-0.9,0.2-1.9,0.3-2.9,0.3c-0.8,0-1.6-0.1-2.2-0.2c-0.7-0.1-1.3-0.3-1.8-0.6c-0.5-0.3-0.9-0.7-1.2-1.1
			c-0.3-0.5-0.4-1-0.4-1.7c0-0.7,0.2-1.4,0.6-2c0.4-0.6,0.9-1.1,1.5-1.4c-0.3-0.2-0.6-0.5-0.9-0.8c-0.2-0.3-0.4-0.7-0.4-1.2
			c0-0.7,0.2-1.3,0.5-1.8c0.3-0.5,0.8-0.9,1.3-1.3c-0.6-0.4-1.1-0.9-1.5-1.6c-0.4-0.7-0.6-1.5-0.6-2.4c0-0.7,0.1-1.3,0.3-1.9
			c0.2-0.6,0.6-1.1,1-1.5c0.5-0.4,1-0.8,1.7-1c0.7-0.3,1.4-0.4,2.3-0.4c0.7,0,1.4,0.1,2,0.3c0.6,0.2,1.1,0.4,1.5,0.7
			c0.2-0.1,0.4-0.2,0.7-0.2c0.3-0.1,0.6-0.2,0.9-0.2c0.3-0.1,0.7-0.1,1-0.2c0.3,0,0.7-0.1,1-0.1c0.1,0.3,0.1,0.6,0.1,0.9
			c0,0.3,0,0.7-0.1,0.9h-2.6c0.3,0.4,0.4,0.8,0.6,1.3c0.1,0.4,0.2,0.9,0.2,1.4c0,0.8-0.1,1.5-0.4,2.1c-0.3,0.6-0.6,1.1-1.1,1.5
			c-0.5,0.4-1,0.7-1.7,0.9c-0.6,0.2-1.3,0.3-2.1,0.3c-0.8,0-1.5-0.1-2-0.3c-0.5,0.3-0.9,0.6-1.1,0.9c-0.2,0.3-0.3,0.6-0.3,1
			c0,0.2,0,0.4,0.1,0.5c0.1,0.2,0.2,0.3,0.3,0.4c0.2,0.1,0.4,0.2,0.7,0.3s0.7,0.1,1.2,0.1L63.8,157.9z M60,159.5
			c-0.9,0-1.5,0.2-2.1,0.7c-0.5,0.5-0.8,1.2-0.8,2c0,0.4,0.1,0.8,0.3,1.1c0.2,0.3,0.5,0.5,0.8,0.7c0.4,0.2,0.8,0.3,1.2,0.3
			c0.5,0.1,1,0.1,1.5,0.1c1.7,0,3-0.3,3.9-0.9c0.9-0.6,1.4-1.3,1.4-2.1c0-0.7-0.2-1.2-0.7-1.5c-0.5-0.3-1.2-0.4-2.3-0.5L60,159.5z
			 M58,149.9c0,0.9,0.3,1.7,0.8,2.4c0.6,0.6,1.4,1,2.6,1c1.2,0,2-0.3,2.6-1c0.6-0.6,0.8-1.4,0.8-2.4c0-0.9-0.3-1.7-0.8-2.4
			c-0.6-0.6-1.4-1-2.6-1c-1.2,0-2,0.3-2.6,1C58.2,148.2,58,149,58,149.9z"/>
		<path class="st2" d="M72.4,147h-1.7c0-0.1,0-0.2,0-0.3c0-0.1,0-0.3,0-0.4c0-0.1,0-0.3,0-0.4c0-0.1,0-0.3,0-0.4h3.5v13.9
			c-0.1,0-0.3,0-0.4,0c-0.2,0-0.3,0-0.4,0c-0.1,0-0.2,0-0.4,0c-0.2,0-0.4,0-0.5,0V147z M71.5,142c0-0.2,0-0.4,0-0.6s0-0.4,0-0.6
			c0-0.1,0-0.3,0-0.5c0-0.2,0-0.4,0-0.5c0.2,0,0.4,0,0.6,0c0.2,0,0.4,0,0.6,0c0.1,0,0.3,0,0.5,0c0.2,0,0.4,0,0.5,0
			c0,0.1,0,0.3,0,0.5c0,0.2,0,0.4,0,0.5c0,0.2,0,0.4,0,0.6c0,0.2,0,0.4,0,0.6c-0.1,0-0.3,0-0.5,0c-0.2,0-0.4,0-0.5,0
			c-0.2,0-0.4,0-0.6,0C71.8,142.1,71.6,142.1,71.5,142z"/>
		<path class="st2" d="M80.4,152.6c0,1.8,0.4,3.2,1.3,4.1c0.9,0.9,2.1,1.3,3.8,1.3c0.7,0,1.3-0.1,1.9-0.2c0.6-0.1,1.2-0.3,1.7-0.5
			c0.1,0.2,0.2,0.4,0.2,0.7c0.1,0.3,0.1,0.6,0.1,0.8c-0.5,0.2-1.1,0.4-1.8,0.5c-0.7,0.1-1.5,0.2-2.3,0.2c-1.2,0-2.2-0.2-3.1-0.5
			c-0.9-0.4-1.6-0.8-2.1-1.5c-0.6-0.6-1-1.4-1.2-2.3c-0.3-0.9-0.4-1.8-0.4-2.9c0-1,0.1-2,0.4-2.9s0.6-1.7,1.1-2.3
			c0.5-0.7,1.1-1.2,1.9-1.6c0.8-0.4,1.7-0.6,2.8-0.6c0.9,0,1.7,0.2,2.4,0.5c0.7,0.3,1.3,0.7,1.8,1.3c0.5,0.6,0.8,1.2,1.1,2
			c0.2,0.8,0.4,1.6,0.4,2.5c0,0.2,0,0.4,0,0.6c0,0.3,0,0.5,0,0.7H80.4z M88.5,151.1c0-0.6-0.1-1.1-0.2-1.7c-0.1-0.5-0.4-1-0.7-1.4
			c-0.3-0.4-0.7-0.7-1.2-1c-0.5-0.3-1.1-0.4-1.8-0.4c-1.3,0-2.3,0.4-3,1.2c-0.7,0.8-1.1,1.9-1.3,3.3H88.5z"/>
	</g>
	<path class="st2" d="M30.6,175.9c0.1-0.1,0.2-0.1,0.3-0.2c0.1-0.1,0.2-0.2,0.3-0.3c0.1-0.1,0.2-0.3,0.2-0.4
		c0.1-0.2,0.1-0.4,0.1-0.6c0-0.4-0.1-0.7-0.2-0.9c-0.1-0.2-0.3-0.4-0.6-0.6c-0.2-0.1-0.5-0.2-0.8-0.3c-0.3-0.1-0.6-0.1-0.9-0.1
		c-0.3,0-0.5,0-0.7,0c-0.2,0-0.4,0-0.7,0.1v5.8c0.1,0,0.2,0,0.3,0c0.1,0,0.2,0,0.3,0c0.1,0,0.2,0,0.3,0c0.1,0,0.2,0,0.3,0v-4.9
		c0.1,0,0.2,0,0.3,0c0.3,0,0.6,0.1,0.7,0.2c0.2,0.2,0.3,0.4,0.3,0.7c0,0.2,0,0.3-0.1,0.4c-0.1,0.1-0.2,0.2-0.3,0.3
		c-0.1,0.1-0.2,0.2-0.3,0.2c-0.1,0.1-0.2,0.1-0.3,0.1l-0.2,0.1l1.5,2.7c0.2,0,0.4,0,0.6,0c0.1,0,0.2,0,0.4,0c0.1,0,0.2,0,0.3,0
		l-1.4-2.4L30.6,175.9z M14.5,175.4v2c-0.1,0-0.1,0-0.2,0c-0.1,0-0.2,0-0.2,0c-0.5,0-0.9-0.2-1.2-0.5c-0.3-0.3-0.4-0.8-0.4-1.5
		c0-0.7,0.1-1.2,0.4-1.5c0.3-0.3,0.7-0.5,1.2-0.5c0.2,0,0.4,0,0.5,0c0.1,0,0.3,0.1,0.5,0.1c0.1-0.2,0.1-0.3,0.2-0.5
		c0.1-0.2,0.1-0.3,0.1-0.5c-0.2-0.1-0.5-0.2-0.7-0.2c-0.2,0-0.5,0-0.7,0c-0.4,0-0.8,0.1-1.2,0.2c-0.3,0.1-0.6,0.4-0.9,0.6
		c-0.2,0.3-0.4,0.6-0.5,1c-0.1,0.4-0.2,0.8-0.2,1.2c0,0.4,0.1,0.8,0.2,1.2c0.1,0.4,0.3,0.7,0.5,0.9c0.2,0.3,0.5,0.5,0.9,0.6
		c0.4,0.1,0.8,0.2,1.2,0.2c0.2,0,0.5,0,0.8-0.1c0.3,0,0.6-0.1,0.9-0.2v-2.8c-0.2,0-0.4,0-0.6,0C14.9,175.4,14.7,175.4,14.5,175.4z
		 M62.9,172.6c-0.1,0-0.2,0-0.3,0c-0.1,0-0.2,0-0.3,0v3c0,0.3,0,0.6,0,0.8c0,0.2-0.1,0.4-0.1,0.6c-0.1,0.2-0.2,0.3-0.3,0.3
		c-0.1,0.1-0.3,0.1-0.5,0.1c-0.2,0-0.4,0-0.5-0.1c-0.1-0.1-0.2-0.2-0.3-0.3c-0.1-0.2-0.1-0.3-0.1-0.6c0-0.2,0-0.5,0-0.8v-3
		c-0.1,0-0.2,0-0.3,0c-0.1,0-0.2,0-0.3,0c-0.1,0-0.2,0-0.3,0c-0.1,0-0.2,0-0.3,0v3.2c0,0.4,0,0.7,0.1,1.1c0.1,0.3,0.2,0.6,0.3,0.8
		c0.2,0.2,0.4,0.4,0.7,0.5c0.3,0.1,0.6,0.2,1.1,0.2c0.4,0,0.8-0.1,1.1-0.2c0.3-0.1,0.5-0.3,0.7-0.5c0.2-0.2,0.3-0.5,0.3-0.8
		c0.1-0.3,0.1-0.7,0.1-1.1v-3.2c-0.1,0-0.2,0-0.3,0C63.1,172.6,63,172.6,62.9,172.6z M78.8,173.5c-0.1-0.3-0.3-0.5-0.5-0.6
		c-0.2-0.1-0.5-0.2-0.7-0.3c-0.3-0.1-0.5-0.1-0.8-0.1c-0.3,0-0.5,0-0.8,0c-0.3,0-0.5,0-0.7,0.1v5.8c0.1,0,0.2,0,0.3,0
		c0.1,0,0.2,0,0.3,0c0.1,0,0.2,0,0.3,0c0.1,0,0.2,0,0.3,0v-1.9c0.1,0,0.1,0,0.2,0c0.1,0,0.1,0,0.2,0c0.3,0,0.5,0,0.8-0.1
		c0.3-0.1,0.5-0.2,0.7-0.3c0.2-0.1,0.4-0.4,0.5-0.6c0.1-0.3,0.2-0.6,0.2-1C79,174.1,78.9,173.8,78.8,173.5z M77.7,175.1
		c-0.1,0.1-0.1,0.2-0.2,0.3c-0.1,0.1-0.2,0.1-0.3,0.2c-0.1,0-0.3,0.1-0.4,0.1h-0.2c-0.1,0-0.1,0-0.2,0v-2c0.1,0,0.2,0,0.2,0
		c0,0,0.1,0,0.2,0c0.1,0,0.3,0,0.4,0.1c0.1,0,0.2,0.1,0.3,0.2c0.1,0.1,0.2,0.2,0.2,0.3c0.1,0.1,0.1,0.3,0.1,0.5
		C77.8,174.8,77.7,174.9,77.7,175.1z M46.7,173.4c-0.2-0.3-0.5-0.5-0.8-0.6c-0.3-0.1-0.7-0.2-1.1-0.2c-0.4,0-0.8,0.1-1.1,0.2
		c-0.3,0.1-0.6,0.4-0.8,0.6c-0.2,0.3-0.4,0.6-0.5,1c-0.1,0.4-0.1,0.8-0.1,1.2c0,0.4,0,0.8,0.1,1.2c0.1,0.4,0.2,0.7,0.5,0.9
		s0.5,0.5,0.8,0.6c0.3,0.1,0.7,0.2,1.1,0.2c0.4,0,0.8-0.1,1.1-0.2c0.3-0.1,0.6-0.4,0.8-0.6s0.4-0.6,0.5-0.9c0.1-0.4,0.1-0.8,0.1-1.2
		c0-0.4,0-0.8-0.1-1.2C47.1,174,46.9,173.7,46.7,173.4z M44.8,177.5c-0.8,0-1.3-0.7-1.3-2c0-1.3,0.4-2,1.3-2c0.4,0,0.7,0.2,0.9,0.5
		c0.2,0.3,0.3,0.8,0.3,1.5C46.1,176.9,45.7,177.5,44.8,177.5z"/>
</g>
</svg>
