<?xml version="1.0" encoding="utf-8"?>
<!-- Generator: Adobe Illustrator 24.1.2, SVG Export Plug-In . SVG Version: 6.00 Build 0)  -->
<svg version="1.1" id="Ebene_1" xmlns="http://www.w3.org/2000/svg" xmlns:xlink="http://www.w3.org/1999/xlink" x="0px" y="0px"
	 viewBox="0 0 22 22" style="enable-background:new 0 0 22 22;" xml:space="preserve">
<style type="text/css">
	.st0{fill:#758CA3;}
</style>
<g>
	<path class="st0" d="M9.1,16.8c-4.5,0-7.1-2.2-7.1-6C2,4.2,8.7,0,13.3,0c2.5,0,4.2,1.1,4.2,2.7c0,1.4-1,2-1.7,2.4
		c-0.6,0.3-1,0.6-1,1c0,0.7,0.7,0.8,1.8,0.8c1,0,2.1,0.6,2.1,2.1c0,1.7-0.8,3.4-2.5,4.9l-0.4-0.4c1.5-1.4,2.4-2.9,2.4-4.3
		c0-1.3-1-1.5-1.5-1.5c-0.7,0-2.4,0-2.4-1.5c0-0.8,0.7-1.3,1.3-1.5C16.3,4.1,17,3.8,17,2.7c0-1.4-1.8-2.1-3.6-2.1
		C9.6,0.6,2.6,4.1,2.6,10.8c0,4.8,4.2,5.5,6.6,5.5c1.3,0,2.8-0.4,4.3-1.1l0.3,0.6C12.2,16.4,10.5,16.8,9.1,16.8z"/>
	<path class="st0" d="M13.3,4.2c-0.7,0-1.4-0.7-1.4-1.5s0.7-1.5,1.5-1.5c0.8,0,1.5,0.7,1.5,1.5S14.2,4.2,13.3,4.2z M13.3,1.8
		c-0.6,0-0.8,0.4-0.8,0.8s0.4,0.8,0.8,0.8c0.6,0,0.8-0.4,0.8-0.8S13.9,1.8,13.3,1.8z"/>
	<path class="st0" d="M9.1,5.7C8.4,5.7,7.7,5,7.7,4.2s0.7-1.5,1.5-1.5s1.4,0.7,1.4,1.5S10,5.7,9.1,5.7z M9.1,3.4
		c-0.4,0-0.8,0.3-0.8,0.8S8.7,5,9.1,5s1-0.3,1-0.8S9.7,3.4,9.1,3.4z"/>
	<path class="st0" d="M5.9,8.7C5.1,8.7,4.4,8,4.4,7.1s0.7-1.5,1.5-1.5s1.5,0.7,1.5,1.5S6.8,8.7,5.9,8.7z M5.9,6.3
		c-0.6,0-0.8,0.4-0.8,0.8S5.5,8,5.9,8s0.8-0.4,0.8-0.8S6.3,6.3,5.9,6.3z"/>
	<path class="st0" d="M4.9,13.2c-0.8,0-1.5-0.7-1.5-1.5s0.7-1.5,1.5-1.5s1.5,0.7,1.5,1.5C6.5,12.5,5.8,13.2,4.9,13.2z M4.9,10.8
		c-0.4,0-0.8,0.4-0.8,1c0,0.6,0.4,0.8,0.8,0.8s0.8-0.4,0.8-0.8C5.8,11.3,5.5,10.8,4.9,10.8z"/>
	<path class="st0" d="M8.6,15.5C7.7,15.5,7,14.8,7,14s0.7-1.4,1.5-1.4s1.5,0.7,1.5,1.5C10.1,15,9.4,15.5,8.6,15.5z M8.6,13.2
		c-0.6,0-0.8,0.4-0.8,0.8s0.4,0.8,0.8,0.8c0.4,0,0.8-0.4,0.8-0.8S9.1,13.2,8.6,13.2z"/>
	<path class="st0" d="M14.9,12c-0.3,0-0.7-0.1-0.8-0.4c-0.6-0.6-0.4-1.7,0.4-2.4c0.4-0.4,0.8-0.7,1.3-0.8c0.6-0.1,1,0,1.3,0.3
		c0.3,0.3,0.4,0.7,0.3,1.3c-0.1,0.4-0.4,0.8-0.7,1.3C16,11.8,15.4,12,14.9,12z M16.1,9C16,9,16,9,15.9,9c-0.3,0.1-0.7,0.4-1,0.7
		c-0.6,0.6-0.7,1.3-0.4,1.5s1.1,0.1,1.7-0.4c0.3-0.3,0.6-0.7,0.6-1c0-0.1,0-0.4-0.1-0.7C16.4,9.1,16.3,9,16.1,9z"/>
	<path class="st0" d="M16.6,16.8c-0.1,0-0.4,0-0.6-0.1l0,0l-6.2-5.6c0,0-0.1-0.1-0.1-0.3c0-0.1,0-0.1,0.1-0.3l1.3-1.3
		c0,0,0.1-0.1,0.3-0.1s0.1,0,0.3,0.1l5.6,6.2c0.1,0.1,0.1,0.3,0.1,0.6C17.3,16.5,17,16.8,16.6,16.8z M16.4,16.1
		C16.4,16.2,16.6,16.2,16.4,16.1c0.1,0,0.3,0,0.3-0.1v-0.1l-5.5-5.7l-0.7,0.7L16.4,16.1z"/>
	<path class="st0" d="M10.3,10.9L10.3,10.9c-1-0.1-1.7-0.8-2-1.8C8,8,8.3,6.6,8.7,6C8.9,5.9,9,5.9,9,6c0.1,0,0.1,0.1,0.1,0.3
		c0,0.8,0.4,1,1,1.3c0.7,0.3,1.4,0.6,1.4,2.1c0.1,0,0,0.1-0.3,0.1C11,9.8,11,9.7,11,9.5c0-1.1-0.4-1.3-1.1-1.5
		c-0.3-0.1-0.7-0.3-1-0.7C8.7,7.7,8.7,8.4,8.9,9c0.3,0.8,0.7,1.3,1.4,1.4c0.1,0,0.3,0.1,0.3,0.4C10.5,10.9,10.4,10.9,10.3,10.9z"/>
</g>
</svg>
