<?xml version="1.0" encoding="utf-8"?>
<!-- Generator: Adobe Illustrator 24.1.2, SVG Export Plug-In . SVG Version: 6.00 Build 0)  -->
<svg version="1.1" id="Ebene_1" xmlns="http://www.w3.org/2000/svg" xmlns:xlink="http://www.w3.org/1999/xlink" x="0px" y="0px"
	 viewBox="0 0 22 22" style="enable-background:new 0 0 22 22;" xml:space="preserve">
<style type="text/css">
	.st0{fill:#758CA3;}
</style>
<g>
	<path class="st0" d="M21.3,8.8l-1.1-0.7l-0.5-2.2c-0.2-0.6-0.7-1.1-1.3-1.1h-2V2.4H3.8v5.7V9v3.1V13h0.9h1.8c0.2,0.9,1.1,1.6,2,1.6
		c1.3,0,2.2-0.9,2.2-2.2s-0.9-2.2-2.2-2.2c-1.1,0-1.8,0.7-2,1.7H4.8V9.2H15V8.1H4.8V3.3h10.6v2.6h2.9c0.2,0,0.4,0.2,0.4,0.4l0.6,2.6
		l1.5,0.9c0.2,0.2,0.4,0.4,0.4,0.6v0.2h-0.6v0.9h0.6v0.7H20V13h2v-1.7v-0.9v-0.2C22,9.6,21.6,9.2,21.3,8.8z M7.5,12.7
		c0-0.7,0.6-1.3,1.3-1.3c0.7,0,1.3,0.6,1.3,1.3S9.3,14,8.6,14C8.1,14,7.5,13.4,7.5,12.7z"/>
	<path class="st0" d="M18.5,6.1h-3.1V9h3.7L18.5,6.1z M17.8,7L18,8.1h-1.7V7H17.8z"/>
	<path class="st0" d="M17.4,10.5c-1.1,0-1.8,0.7-2,1.6h-4.2V13h4c0.2,0.9,1.1,1.6,2,1.6c1.3,0,2.2-0.9,2.2-2.2
		C19.6,11.4,18.5,10.5,17.4,10.5z M17.4,11.4c0.7,0,1.3,0.6,1.3,1.3c0,0.7-0.5,1.3-1.3,1.3c-0.7,0-1.3-0.6-1.3-1.3
		S16.7,11.4,17.4,11.4z"/>
	<path class="st0" d="M17.4,13.4c0.4,0,0.7-0.4,0.7-0.7c0-0.4-0.4-0.7-0.7-0.7c-0.4,0-0.7,0.4-0.7,0.7C16.7,13,17.1,13.4,17.4,13.4z
		"/>
	<path class="st0" d="M8.6,13.4c0.4,0,0.7-0.4,0.7-0.7c0-0.4-0.4-0.7-0.7-0.7c-0.4,0-0.7,0.4-0.7,0.7C7.9,13,8.2,13.4,8.6,13.4z"/>
	<rect y="12.1" class="st0" width="3.3" height="0.9"/>
	<rect x="0.7" y="10.5" class="st0" width="2.6" height="0.9"/>
	<rect x="1.6" y="8.8" class="st0" width="1.8" height="0.9"/>
</g>
</svg>
