<?xml version="1.0" encoding="utf-8"?>
<!-- Generator: Adobe Illustrator 24.1.2, SVG Export Plug-In . SVG Version: 6.00 Build 0)  -->
<svg version="1.1" id="Ebene_1" xmlns="http://www.w3.org/2000/svg" xmlns:xlink="http://www.w3.org/1999/xlink" x="0px" y="0px"
	 viewBox="0 0 22 22" style="enable-background:new 0 0 22 22;" xml:space="preserve">
<style type="text/css">
	.st0{fill:#758CA3;}
</style>
<g id="_x38_">
	<rect x="1.2" y="6" transform="matrix(0.7305 -0.6829 0.6829 0.7305 -4.9883 3.1917)" class="st0" width="0.7" height="3.8"/>
	<path class="st0" d="M15.5,13.6C15.5,13.6,15.4,13.6,15.5,13.6c-0.4,0-0.7-0.2-0.9-0.4l-2.9-3.5l0.5-0.4l2.9,3.5
		c0.1,0.1,0.2,0.1,0.3,0.2c0.1,0,0.2,0,0.3-0.1l0.6-0.5c0.2-0.2,0.2-0.4,0.1-0.6l-4-4.9c-0.2-0.3-0.6-0.4-0.9-0.3L7.7,7.3
		C7.3,7.4,7,7.2,6.8,6.9L6.4,6.3C6.3,6.1,6.3,6,6.3,5.8c0-0.2,0.1-0.3,0.3-0.4l5.1-2.8c0.5-0.3,1.1-0.3,1.5,0l3.3,1.9L18,3.2
		l0.4,0.5l-1.9,1.7l-3.7-2.1c-0.3-0.2-0.6-0.2-0.9,0L7,6l0.3,0.6c0.1,0.1,0.1,0.1,0.2,0.1l3.8-0.8C12,5.7,12.6,5.9,13,6.4l4,4.9
		c0.4,0.5,0.3,1.1-0.1,1.5l-0.6,0.5C16,13.5,15.8,13.6,15.5,13.6z"/>
	<rect x="5.4" y="3" transform="matrix(0.7461 -0.6659 0.6659 0.7461 -1.6808 5.0155)" class="st0" width="0.7" height="3.5"/>
	<path class="st0" d="M18.3,11.8L18,11.2l0.3-0.1c1.2-0.5,1.4-2.2,1.4-2.2l0-0.1l1.8-1.6L22,7.6l-1.7,1.5c-0.1,0.5-0.5,2-1.8,2.6
		L18.3,11.8z"/>
	<path class="st0" d="M13.6,14.8c0,0-0.1,0-0.1,0c-0.3,0-0.6-0.2-0.7-0.4l-2.5-3.1l0.5-0.4l2.5,3.1c0.1,0.1,0.2,0.1,0.3,0.2
		c0.1,0,0.2,0,0.3-0.1l0.5-0.4c0.2-0.2,0.2-0.4,0.1-0.6l-1.7-2.1l0.5-0.4l1.7,2.1c0.4,0.5,0.3,1.2-0.2,1.5l-0.5,0.4
		C14.1,14.7,13.8,14.8,13.6,14.8z"/>
	<path class="st0" d="M11.6,15.8c0,0-0.1,0-0.1,0c-0.3,0-0.6-0.2-0.7-0.4L8.9,13l0.5-0.4l1.9,2.3c0.1,0.1,0.2,0.1,0.3,0.2
		c0.1,0,0.2,0,0.3-0.1l0.5-0.4c0.2-0.2,0.2-0.4,0.1-0.6l-2-2.5l0.5-0.4l2,2.5c0.4,0.5,0.3,1.2-0.1,1.5l-0.5,0.4
		C12.1,15.7,11.9,15.8,11.6,15.8z"/>
	<path class="st0" d="M9.6,16.6c-0.3,0-0.6-0.1-0.8-0.4l-0.3-0.3L9,15.5l0.3,0.3C9.4,16,9.7,16,9.9,15.8l0.4-0.4
		c0.2-0.2,0.2-0.4,0.1-0.6L8.9,13l0.5-0.4l1.5,1.8c0.4,0.5,0.3,1.2-0.1,1.5l-0.4,0.4C10.1,16.5,9.8,16.6,9.6,16.6z"/>
	<path class="st0" d="M3.3,11.7c-0.2,0-0.5-0.1-0.6-0.3v0l-0.6-0.7c-0.3-0.3-0.3-0.9,0.1-1.2l0.7-0.6c0.2-0.1,0.4-0.2,0.6-0.2
		c0.2,0,0.4,0.1,0.6,0.3l0.6,0.7c0.3,0.3,0.3,0.9-0.1,1.2l-0.7,0.6C3.7,11.6,3.5,11.7,3.3,11.7z M3.2,11c0.1,0.1,0.2,0.1,0.2,0
		l0.7-0.6c0.1-0.1,0.1-0.2,0-0.2L3.6,9.4c0,0-0.1-0.1-0.1-0.1c0,0-0.1,0-0.1,0L2.6,10c-0.1,0.1-0.1,0.2,0,0.2L3.2,11z"/>
	<path class="st0" d="M4.6,13.1C4.6,13.1,4.6,13.1,4.6,13.1c-0.3,0-0.5-0.1-0.6-0.3l-0.6-0.7c-0.3-0.3-0.3-0.9,0.1-1.2l0.7-0.6
		c0.2-0.1,0.4-0.2,0.6-0.2c0.2,0,0.4,0.1,0.6,0.3l0.6,0.7c0.1,0.2,0.2,0.4,0.2,0.6c0,0.2-0.1,0.4-0.3,0.6l-0.7,0.6
		C5,13.1,4.8,13.1,4.6,13.1z M4.7,10.8c0,0-0.1,0-0.1,0l-0.7,0.6c-0.1,0.1-0.1,0.2,0,0.2l0.6,0.7c0,0,0.1,0.1,0.1,0.1
		c0,0,0.1,0,0.1,0l0.7-0.6c0,0,0.1-0.1,0.1-0.1c0,0,0-0.1,0-0.1l-0.6-0.7C4.8,10.8,4.8,10.8,4.7,10.8C4.7,10.8,4.7,10.8,4.7,10.8z"
		/>
	<path class="st0" d="M5.9,14.6c-0.2,0-0.5-0.1-0.6-0.3v0l-0.6-0.7c-0.3-0.3-0.3-0.9,0.1-1.2l0.7-0.6c0.2-0.1,0.4-0.2,0.6-0.2
		c0.2,0,0.4,0.1,0.6,0.3l0.6,0.7c0.1,0.2,0.2,0.4,0.2,0.6c0,0.2-0.1,0.4-0.3,0.6l-0.7,0.6C6.3,14.5,6.1,14.6,5.9,14.6z M5.7,13.9
		c0.1,0.1,0.2,0.1,0.2,0l0.7-0.6c0,0,0.1-0.1,0.1-0.1c0,0,0-0.1,0-0.1l-0.6-0.7c0,0-0.1-0.1-0.1-0.1c0,0-0.1,0-0.1,0l-0.7,0.6
		c-0.1,0.1-0.1,0.2,0,0.2L5.7,13.9z"/>
	<path class="st0" d="M7.2,15.7c-0.2,0-0.5-0.1-0.6-0.3l-1-1.1l1.1-1C7,13,7.6,13,7.9,13.4l0.4,0.5c0.1,0.2,0.2,0.4,0.2,0.6
		c0,0.2-0.1,0.4-0.3,0.6l-0.5,0.4C7.5,15.6,7.3,15.7,7.2,15.7z M6.5,14.3L7,14.9c0,0,0.1,0.1,0.1,0.1c0,0,0.1,0,0.1,0l0.5-0.4
		c0,0,0.1-0.1,0.1-0.1c0,0,0-0.1,0-0.1l-0.4-0.5c-0.1-0.1-0.2-0.1-0.2,0L6.5,14.3z"/>
</g>
</svg>
