<?xml version="1.0" encoding="utf-8"?>
<!-- Generator: Adobe Illustrator 24.2.1, SVG Export Plug-In . SVG Version: 6.00 Build 0)  -->
<svg version="1.1" id="Ebene_1" xmlns="http://www.w3.org/2000/svg" xmlns:xlink="http://www.w3.org/1999/xlink" x="0px" y="0px"
	 viewBox="0 0 80 80" style="enable-background:new 0 0 80 80;" xml:space="preserve">
<style type="text/css">
	.st0{fill:#96694C;}
</style>
<path class="st0" d="M40,0C17.9,0,0,17.9,0,40s17.9,40,40,40s40-17.9,40-40S62.1,0,40,0z M66.1,66.1c-3.4,3.4-7.3,6.1-11.7,7.9
	C49.8,76,45,76.9,40,76.9c-5,0-9.8-1-14.4-2.9c-4.4-1.9-8.3-4.5-11.7-7.9c-3.4-3.4-6.1-7.3-7.9-11.7C4,49.8,3.1,45,3.1,40
	c0-5,1-9.8,2.9-14.4c1.9-4.4,4.5-8.3,7.9-11.7S21.2,7.8,25.6,6C30.2,4,35,3.1,40,3.1c5,0,9.8,1,14.4,2.9c4.4,1.9,8.3,4.5,11.7,7.9
	c3.4,3.4,6.1,7.3,7.9,11.7C76,30.2,76.9,35,76.9,40c0,5-1,9.8-2.9,14.4C72.2,58.8,69.5,62.7,66.1,66.1z"/>
<g>
	<path class="st0" d="M30.9,33.9c0.2,0.2,0.5,0.2,0.7,0l0.8-0.6c0.2-0.1,0.3-0.4,0.2-0.6l-0.1-0.5c-0.1-0.3-0.3-0.5-0.6-0.5l-1.1,0
		c-0.2,0-0.5,0.2-0.5,0.4l-0.2,0.7c-0.1,0.2,0,0.5,0.2,0.6L30.9,33.9z"/>
	<path class="st0" d="M26.8,36.5l0.8,0.3c0.1,0,0.2,0.1,0.4,0l0,0c0.3-0.1,0.5-0.4,0.5-0.7l-0.1-1.2c0-0.2-0.2-0.4-0.4-0.5l-0.4-0.2
		c-0.2-0.1-0.3-0.1-0.5,0l-0.2,0.1c-0.2,0.1-0.4,0.3-0.4,0.5l-0.1,1c0,0.1,0,0.3,0.1,0.4C26.6,36.3,26.6,36.4,26.8,36.5z"/>
	<path class="st0" d="M28.9,38.4c-0.1-0.1-0.3-0.1-0.4-0.1L27.1,39C27,39,27,39,26.9,39.1l-0.2,0.2c-0.1,0.1-0.1,0.3,0,0.5l0.5,0.8
		c0.1,0.2,0.3,0.2,0.4,0.2l1-0.2c0.2,0,0.3-0.2,0.3-0.4l0.1-1.4C29.1,38.6,29,38.5,28.9,38.4L28.9,38.4z"/>
	<path class="st0" d="M29,32.8L29,32.8c0-0.2,0-0.4-0.2-0.6l-2.3-2.5c-0.1-0.1-0.2-0.1-0.3-0.1C26,29.6,25.9,29.8,26,30l1.6,3
		c0.1,0.2,0.3,0.4,0.6,0.4l0.1,0C28.6,33.4,29,33.1,29,32.8z"/>
	<path class="st0" d="M26,38.4l0.2-0.3c0.1-0.1,0.1-0.3,0-0.4c-0.2-0.3-0.7-0.7-0.7-0.7c-0.6-0.1-2.1,0.5-4.5,0.9
		c-0.1,0-0.2,0.1-0.3,0.3l0,0.1c0,0.2,0,0.3,0.2,0.4c0.1,0,0.1,0.1,0.2,0.1l4.7,0C25.8,38.6,26,38.5,26,38.4z"/>
	<path class="st0" d="M28.7,42.2c0-0.1-0.1-0.1-0.1-0.2l-0.1,0c-0.1-0.1-0.2-0.1-0.3,0l-0.7,0.3c-0.2,0.1-0.3,0.2-0.4,0.4l-1.4,3.9
		c0,0.1,0,0.3,0.1,0.3c0.1,0.1,0.3,0,0.4-0.1l2.5-4.1c0-0.1,0.1-0.1,0-0.2L28.7,42.2z"/>
	<path class="st0" d="M36.2,32.3C36.2,32.3,36.2,32.3,36.2,32.3C36.1,32.3,36.4,32.3,36.2,32.3z"/>
	<path class="st0" d="M62.7,33.5c-0.5-0.7-0.7-1.1-0.7-1.6c0.2-1,0-2.4-1.7-3.3c-1-0.5-2.1-0.5-3.4-0.7c-0.7-0.1-1.6-0.6-2.1-0.7
		c-1.2-0.4-2.5,0.1-3.7,0.5c-0.8,0.3-1.6,0.5-2.2,0.5c-0.5,0-1-0.1-1.6-0.3c-0.4-0.1-0.8-0.2-1.3-0.2L46,27.3
		c-0.3-0.9-0.9-1.6-1.7-2l-4.8-2.7c-0.1-0.1-0.2-0.1-0.3-0.2L37,20.7c-0.6-0.4-1.3-0.6-2-0.5l-2.1,0.3c-0.6,0.1-1.2,0.4-1.6,0.9
		l-0.7,0.8c-0.4,0.5-1,0.8-1.6,0.8l-1.3,0.1c-0.7,0.1-1.3,0.4-1.8,0.8l-6.5,6.1c-0.8,0.8-1.4,1.7-1.8,2.8l-2.9,8.6
		c-0.4,1.3-0.5,2.7-0.1,4c0.7,2.3,2.6,4.1,4.9,4.7l5.1,1.4c0.4,0.1,0.8,0.2,1.3,0.3l5.1,0.7c0.1,0,0.2,0,0.4,0c0.3,0,0.7,0,1,0
		l1.5-0.3c0.8-0.1,1.6-0.4,2.4-0.6l0.6-0.2c0.1,0.1,0.1,0.2,0.2,0.3c0.4,0.5,0.7,1.2,1.1,1.9c0.6,1.3,1.4,2.7,2.5,3.6
		c1,0.8,1.8,1.7,2.6,2.5c1.7,1.8,3.1,3.3,5.3,3.1c0.1,0,0.2,0,0.4,0c1.1-0.2,3.1-0.6,4.6-1.6c1-0.6,1.8-1.5,2.4-2.5
		c0.3-0.5,0.6-0.9,1-1.2c0.9-0.9,2.1-2.1,2.8-3.1c0.6-0.9,1.3-2.8,1.4-4c0.1-1,0.2-1.4,0.8-2c1.1-1,1.7-2.2,1.9-3.5
		c0.2-1.4,0.2-2.6,0.2-3.9c0-1.2,0-2.4,0.1-3.9C64,35.5,63.3,34.4,62.7,33.5z M49,30.1c1,0,2.6-0.1,3.5-0.5c0.9-0.3,1.7-0.2,1.4,0.4
		c-0.3,0.7-1.8,0.9-3.1,1.5c-0.5,0.2-1.5,0.7-2.9,0.4c-1.5-0.3-2.5-0.5-3.5-0.2c-1.5,0.4-1.6,0.6-2.5-0.2c-0.1-0.1-0.1-0.2,0.1-0.3
		c1.7-0.8,1.9-1.1,2.1-1.3c0.9-0.7,1.4-0.6,2.9-0.2C47.6,29.9,48.3,30.1,49,30.1z M35.5,49.8c-0.7,0.2-1.4,0.4-2.1,0.5l-1.5,0.3
		c-0.2,0-0.5,0-0.7,0L26,49.9c-0.3,0-0.7-0.1-1-0.2l-5.1-1.4l-0.1,0c-1.7-0.4-3-1.6-3.5-3.3c-0.3-0.9-0.2-1.9,0.1-2.8l2.9-8.6
		c0.3-0.8,0.7-1.4,1.3-2l6.5-6.1c0.2-0.2,0.4-0.3,0.7-0.3l1.3-0.1c1.1-0.1,2.2-0.7,2.9-1.5l0.7-0.8c0.1-0.1,0.3-0.2,0.4-0.2l2.1-0.3
		c0.2,0,0.4,0,0.5,0.1L38,24c0.2,0.1,0.4,0.2,0.5,0.4l4.8,2.7c0.3,0.1,0.5,0.4,0.6,0.6c-0.6,0.1-1.1,0.4-1.7,0.9l0,0
		c-1.5,1.1-3.3,1.3-4.7,1.5c-1.2,0.1-2.4,0.6-3.3,1.3c0-0.1-0.1-0.2-0.1-0.3c0-1.1,0-2.4-0.1-3.4c0-0.2-0.2-0.4-0.5-0.3
		c-0.1,0-0.2,0.1-0.2,0.2c-0.2,0.7-0.9,2.6-0.7,3.3c0,0.1,0.6,0.7,0.9,1.1c0,0,0,0,0,0c-0.3,0.3-0.5,0.6-0.7,1
		c-0.5,0.9-0.6,1.8-0.6,2.5l-0.1,0c-0.1,0-0.2,0-0.2,0l-1.8,0.5c-0.2,0.1-0.3,0.2-0.4,0.3c-0.1,0.1-0.1,0.3,0,0.4l0.2,0.9
		c0.1,0.2,0.3,0.4,0.5,0.4l1.1,0.2c-0.2,0.6-0.3,1.3-0.2,2.1L31,40c-0.2,0-0.4,0-0.5,0.1l-0.1,0.1c-0.1,0.1-0.2,0.2-0.3,0.3
		c-0.1,0.2-0.2,0.5-0.3,0.8c-0.1,0.3,0,0.6,0.3,0.8l0.6,0.4c0.1,0.1,0.3,0.1,0.4,0.1l0.9-0.1c0.2,0.6,0.5,1.2,0.9,1.7
		c0.5,0.6,1.2,1.2,1.6,1.6c0.2,0.1,0.3,0.3,0.4,0.4c0.6,0.7,0.7,1.3,0.7,2.1c0,0.4,0.1,0.9,0.2,1.4L35.5,49.8z M61.9,36.9
		c-0.2,1.6-0.1,3-0.1,4.1c0,1.2,0,2.3-0.1,3.5c-0.1,0.8-0.6,1.6-1.3,2.3c-1.1,1-1.3,1.9-1.4,3.2c-0.1,1-0.7,2.6-1.1,3.1
		c-0.4,0.7-1.3,1.6-2.5,2.8c-0.5,0.5-1,1.1-1.3,1.7c-0.4,0.8-1.1,1.4-1.8,1.9c-0.8,0.6-2.2,1-3.8,1.3c-1.3,0.2-2.2-0.7-3.9-2.5
		c-0.8-0.8-1.7-1.8-2.8-2.7c-0.8-0.7-1.4-1.9-2-3c-0.4-0.8-0.8-1.5-1.2-2.1c-0.7-1-0.8-1.7-0.9-2.5c-0.1-0.9-0.2-2-1.2-3.2
		c-0.1-0.1-0.3-0.3-0.6-0.5c-0.4-0.4-1-0.9-1.4-1.4c-0.4-0.5-0.6-1.2-0.9-2.1c0-0.2-0.1-0.4-0.1-0.5c-0.3-1.1,0-1.8,0.3-2.5
		c0-0.1,0.1-0.2,0.1-0.3c0.3-0.7,0.3-1.3,0.4-1.9c0.1-0.7,0.1-1.3,0.4-1.9c0.3-0.5,0.8-1.2,1.5-1.4c0.1-0.1,1.7-0.5,2.5,0.4
		c1,1.2,2.9,2.4,5.9,1.5c0.8-0.2,2.7,0.1,3.5,0.2c0.4,0.1,0.6,0.1,0.8,0.1c0.1,0,0.2,0,0.3,0c0.8-0.1,1.7-0.5,2.4-0.8
		c0.3-0.1,0.6-0.3,0.7-0.3c0.4-0.1,0.7-0.1,1-0.1c0.7-0.1,1.4-0.1,1.9-1c0.2-0.3,0.5-0.7,0.8-1c0.1-0.1,0.3-0.3,0.4-0.4
		c1.2-0.9,2.7-0.5,3,0.5c0.4,1.3,1.1,2.4,1.6,3.3C61.6,35.3,62,36,61.9,36.9z"/>
	<path class="st0" d="M39.8,38.9C39.8,38.9,39.8,38.9,39.8,38.9c-0.2-0.5-0.9-0.8-1.4-0.5c-0.4,0.3-0.6,0.8-0.4,1.3
		c0.4,0.8,0.9,1.1,1.1,1.2c0.4,0.1,0.8,0.1,1-0.2c0.1-0.1,0.2-0.2,0.3-0.4c0.2-0.4,0-0.9-0.3-1.1C40,39.1,39.9,39,39.8,38.9z"/>
	<path class="st0" d="M50.9,52.9c-0.5-0.2-1,0-1.3,0.5c-0.1,0.2-0.2,0.4-0.3,0.5c-0.1,0.3-0.1,0.7,0,1.1l0,0c0.2,0.5,1,0.6,1.3,0.2
		c0,0,0.1-0.1,0.1-0.1c0.2-0.2,0.3-0.4,0.4-0.6c0-0.1,0.1-0.1,0.1-0.2C51.7,53.8,51.5,53.1,50.9,52.9z"/>
	<path class="st0" d="M45.6,40.9c-0.4,0.1-0.6,0.6-0.6,1c0,0.2,0,0.4-0.1,0.5c-0.2,0.3-0.1,0.8,0.1,1.1c0.2,0.3,0.5,0.4,0.9,0.4
		c0.2,0,0.8-0.2,0.8-0.7c0-1.1,0.6-0.8,0.3-1.8C46.8,40.7,46.2,40.7,45.6,40.9z"/>
	<path class="st0" d="M53.9,45.7c0.1-0.1,0.6-0.7,0.5-1.7c0-0.5-0.5-1-1-1c-0.5,0-1,0.5-1,1c0,0,0,0,0,0c0,0.2,0,0.3-0.1,0.5
		c-0.2,0.4-0.2,0.9,0.2,1.2c0.2,0.2,0.5,0.3,0.8,0.3C53.5,46,53.8,45.9,53.9,45.7z"/>
	<path class="st0" d="M53.7,47.8c-0.6,0.6-0.5,1.5-0.2,2c0.2,0.3,0.6,0.5,0.9,0.5c0.1,0,0.3-0.1,0.4-0.1c0.3-0.2,0.5-0.6,0.5-1
		c0-0.1,0-0.3,0.1-0.4c0.1-0.3,0.1-0.8-0.2-1.1C54.8,47.3,54.1,47.4,53.7,47.8z"/>
	<path class="st0" d="M44.7,48.5c0-0.7-0.6-1.2-1.1-1.1c-0.5,0.1-0.9,0.6-0.8,1.1c0,0.2,0.1,0.4,0.2,0.5c0.1,0.2,0.2,0.8,0.1,1
		c-0.2,1.2,1.9,1,1.9,0C45,49.7,44.7,49.3,44.7,48.5z"/>
	<path class="st0" d="M54.4,35.8c-0.4,0.1-0.8,0.4-1,0.9l0,0c0,0,0,0,0,0c-0.1,0.2-0.2,0.4-0.4,0.5c-0.2,0.2-0.3,0.6-0.3,0.9
		c0.1,0.4,0.4,0.7,0.7,0.8c0.1,0,0.3,0.1,0.5,0c0.5-0.1,0.8-0.4,1-0.7c0.1-0.2,0.4-0.4,0.6-0.5c0.1-0.1,0.2-0.1,0.3-0.2
		c0.4-0.4,0.3-1-0.1-1.4C55.5,35.9,54.9,35.7,54.4,35.8z M54.4,37.6c0,0,0.1,0.1,0.1,0.1C54.5,37.7,54.4,37.6,54.4,37.6z"/>
</g>
<path class="st0" d="M40,0C17.9,0,0,17.9,0,40s17.9,40,40,40s40-17.9,40-40S62.1,0,40,0z M66.1,66.1c-3.4,3.4-7.3,6.1-11.7,7.9
	C49.8,76,45,76.9,40,76.9c-5,0-9.8-1-14.4-2.9c-4.4-1.9-8.3-4.5-11.7-7.9c-3.4-3.4-6.1-7.3-7.9-11.7C4,49.8,3.1,45,3.1,40
	c0-5,1-9.8,2.9-14.4c1.9-4.4,4.5-8.3,7.9-11.7S21.2,7.8,25.6,6C30.2,4,35,3.1,40,3.1c5,0,9.8,1,14.4,2.9c4.4,1.9,8.3,4.5,11.7,7.9
	c3.4,3.4,6.1,7.3,7.9,11.7C76,30.2,76.9,35,76.9,40c0,5-1,9.8-2.9,14.4C72.2,58.8,69.5,62.7,66.1,66.1z"/>
<g>
	<path class="st0" d="M30.9,33.9c0.2,0.2,0.5,0.2,0.7,0l0.8-0.6c0.2-0.1,0.3-0.4,0.2-0.6l-0.1-0.5c-0.1-0.3-0.3-0.5-0.6-0.5l-1.1,0
		c-0.2,0-0.5,0.2-0.5,0.4l-0.2,0.7c-0.1,0.2,0,0.5,0.2,0.6L30.9,33.9z"/>
	<path class="st0" d="M26.8,36.5l0.8,0.3c0.1,0,0.2,0.1,0.4,0l0,0c0.3-0.1,0.5-0.4,0.5-0.7l-0.1-1.2c0-0.2-0.2-0.4-0.4-0.5l-0.4-0.2
		c-0.2-0.1-0.3-0.1-0.5,0l-0.2,0.1c-0.2,0.1-0.4,0.3-0.4,0.5l-0.1,1c0,0.1,0,0.3,0.1,0.4C26.6,36.3,26.6,36.4,26.8,36.5z"/>
	<path class="st0" d="M28.9,38.4c-0.1-0.1-0.3-0.1-0.4-0.1L27.1,39C27,39,27,39,26.9,39.1l-0.2,0.2c-0.1,0.1-0.1,0.3,0,0.5l0.5,0.8
		c0.1,0.2,0.3,0.2,0.4,0.2l1-0.2c0.2,0,0.3-0.2,0.3-0.4l0.1-1.4C29.1,38.6,29,38.5,28.9,38.4L28.9,38.4z"/>
	<path class="st0" d="M29,32.8L29,32.8c0-0.2,0-0.4-0.2-0.6l-2.3-2.5c-0.1-0.1-0.2-0.1-0.3-0.1C26,29.6,25.9,29.8,26,30l1.6,3
		c0.1,0.2,0.3,0.4,0.6,0.4l0.1,0C28.6,33.4,29,33.1,29,32.8z"/>
	<path class="st0" d="M26,38.4l0.2-0.3c0.1-0.1,0.1-0.3,0-0.4c-0.2-0.3-0.7-0.7-0.7-0.7c-0.6-0.1-2.1,0.5-4.5,0.9
		c-0.1,0-0.2,0.1-0.3,0.3l0,0.1c0,0.2,0,0.3,0.2,0.4c0.1,0,0.1,0.1,0.2,0.1l4.7,0C25.8,38.6,26,38.5,26,38.4z"/>
	<path class="st0" d="M28.7,42.2c0-0.1-0.1-0.1-0.1-0.2l-0.1,0c-0.1-0.1-0.2-0.1-0.3,0l-0.7,0.3c-0.2,0.1-0.3,0.2-0.4,0.4l-1.4,3.9
		c0,0.1,0,0.3,0.1,0.3c0.1,0.1,0.3,0,0.4-0.1l2.5-4.1c0-0.1,0.1-0.1,0-0.2L28.7,42.2z"/>
	<path class="st0" d="M36.2,32.3C36.2,32.3,36.2,32.3,36.2,32.3C36.1,32.3,36.4,32.3,36.2,32.3z"/>
	<path class="st0" d="M62.7,33.5c-0.5-0.7-0.7-1.1-0.7-1.6c0.2-1,0-2.4-1.7-3.3c-1-0.5-2.1-0.5-3.4-0.7c-0.7-0.1-1.6-0.6-2.1-0.7
		c-1.2-0.4-2.5,0.1-3.7,0.5c-0.8,0.3-1.6,0.5-2.2,0.5c-0.5,0-1-0.1-1.6-0.3c-0.4-0.1-0.8-0.2-1.3-0.2L46,27.3
		c-0.3-0.9-0.9-1.6-1.7-2l-4.8-2.7c-0.1-0.1-0.2-0.1-0.3-0.2L37,20.7c-0.6-0.4-1.3-0.6-2-0.5l-2.1,0.3c-0.6,0.1-1.2,0.4-1.6,0.9
		l-0.7,0.8c-0.4,0.5-1,0.8-1.6,0.8l-1.3,0.1c-0.7,0.1-1.3,0.4-1.8,0.8l-6.5,6.1c-0.8,0.8-1.4,1.7-1.8,2.8l-2.9,8.6
		c-0.4,1.3-0.5,2.7-0.1,4c0.7,2.3,2.6,4.1,4.9,4.7l5.1,1.4c0.4,0.1,0.8,0.2,1.3,0.3l5.1,0.7c0.1,0,0.2,0,0.4,0c0.3,0,0.7,0,1,0
		l1.5-0.3c0.8-0.1,1.6-0.4,2.4-0.6l0.6-0.2c0.1,0.1,0.1,0.2,0.2,0.3c0.4,0.5,0.7,1.2,1.1,1.9c0.6,1.3,1.4,2.7,2.5,3.6
		c1,0.8,1.8,1.7,2.6,2.5c1.7,1.8,3.1,3.3,5.3,3.1c0.1,0,0.2,0,0.4,0c1.1-0.2,3.1-0.6,4.6-1.6c1-0.6,1.8-1.5,2.4-2.5
		c0.3-0.5,0.6-0.9,1-1.2c0.9-0.9,2.1-2.1,2.8-3.1c0.6-0.9,1.3-2.8,1.4-4c0.1-1,0.2-1.4,0.8-2c1.1-1,1.7-2.2,1.9-3.5
		c0.2-1.4,0.2-2.6,0.2-3.9c0-1.2,0-2.4,0.1-3.9C64,35.5,63.3,34.4,62.7,33.5z M49,30.1c1,0,2.6-0.1,3.5-0.5c0.9-0.3,1.7-0.2,1.4,0.4
		c-0.3,0.7-1.8,0.9-3.1,1.5c-0.5,0.2-1.5,0.7-2.9,0.4c-1.5-0.3-2.5-0.5-3.5-0.2c-1.5,0.4-1.6,0.6-2.5-0.2c-0.1-0.1-0.1-0.2,0.1-0.3
		c1.7-0.8,1.9-1.1,2.1-1.3c0.9-0.7,1.4-0.6,2.9-0.2C47.6,29.9,48.3,30.1,49,30.1z M35.5,49.8c-0.7,0.2-1.4,0.4-2.1,0.5l-1.5,0.3
		c-0.2,0-0.5,0-0.7,0L26,49.9c-0.3,0-0.7-0.1-1-0.2l-5.1-1.4l-0.1,0c-1.7-0.4-3-1.6-3.5-3.3c-0.3-0.9-0.2-1.9,0.1-2.8l2.9-8.6
		c0.3-0.8,0.7-1.4,1.3-2l6.5-6.1c0.2-0.2,0.4-0.3,0.7-0.3l1.3-0.1c1.1-0.1,2.2-0.7,2.9-1.5l0.7-0.8c0.1-0.1,0.3-0.2,0.4-0.2l2.1-0.3
		c0.2,0,0.4,0,0.5,0.1L38,24c0.2,0.1,0.4,0.2,0.5,0.4l4.8,2.7c0.3,0.1,0.5,0.4,0.6,0.6c-0.6,0.1-1.1,0.4-1.7,0.9l0,0
		c-1.5,1.1-3.3,1.3-4.7,1.5c-1.2,0.1-2.4,0.6-3.3,1.3c0-0.1-0.1-0.2-0.1-0.3c0-1.1,0-2.4-0.1-3.4c0-0.2-0.2-0.4-0.5-0.3
		c-0.1,0-0.2,0.1-0.2,0.2c-0.2,0.7-0.9,2.6-0.7,3.3c0,0.1,0.6,0.7,0.9,1.1c0,0,0,0,0,0c-0.3,0.3-0.5,0.6-0.7,1
		c-0.5,0.9-0.6,1.8-0.6,2.5l-0.1,0c-0.1,0-0.2,0-0.2,0l-1.8,0.5c-0.2,0.1-0.3,0.2-0.4,0.3c-0.1,0.1-0.1,0.3,0,0.4l0.2,0.9
		c0.1,0.2,0.3,0.4,0.5,0.4l1.1,0.2c-0.2,0.6-0.3,1.3-0.2,2.1L31,40c-0.2,0-0.4,0-0.5,0.1l-0.1,0.1c-0.1,0.1-0.2,0.2-0.3,0.3
		c-0.1,0.2-0.2,0.5-0.3,0.8c-0.1,0.3,0,0.6,0.3,0.8l0.6,0.4c0.1,0.1,0.3,0.1,0.4,0.1l0.9-0.1c0.2,0.6,0.5,1.2,0.9,1.7
		c0.5,0.6,1.2,1.2,1.6,1.6c0.2,0.1,0.3,0.3,0.4,0.4c0.6,0.7,0.7,1.3,0.7,2.1c0,0.4,0.1,0.9,0.2,1.4L35.5,49.8z M61.9,36.9
		c-0.2,1.6-0.1,3-0.1,4.1c0,1.2,0,2.3-0.1,3.5c-0.1,0.8-0.6,1.6-1.3,2.3c-1.1,1-1.3,1.9-1.4,3.2c-0.1,1-0.7,2.6-1.1,3.1
		c-0.4,0.7-1.3,1.6-2.5,2.8c-0.5,0.5-1,1.1-1.3,1.7c-0.4,0.8-1.1,1.4-1.8,1.9c-0.8,0.6-2.2,1-3.8,1.3c-1.3,0.2-2.2-0.7-3.9-2.5
		c-0.8-0.8-1.7-1.8-2.8-2.7c-0.8-0.7-1.4-1.9-2-3c-0.4-0.8-0.8-1.5-1.2-2.1c-0.7-1-0.8-1.7-0.9-2.5c-0.1-0.9-0.2-2-1.2-3.2
		c-0.1-0.1-0.3-0.3-0.6-0.5c-0.4-0.4-1-0.9-1.4-1.4c-0.4-0.5-0.6-1.2-0.9-2.1c0-0.2-0.1-0.4-0.1-0.5c-0.3-1.1,0-1.8,0.3-2.5
		c0-0.1,0.1-0.2,0.1-0.3c0.3-0.7,0.3-1.3,0.4-1.9c0.1-0.7,0.1-1.3,0.4-1.9c0.3-0.5,0.8-1.2,1.5-1.4c0.1-0.1,1.7-0.5,2.5,0.4
		c1,1.2,2.9,2.4,5.9,1.5c0.8-0.2,2.7,0.1,3.5,0.2c0.4,0.1,0.6,0.1,0.8,0.1c0.1,0,0.2,0,0.3,0c0.8-0.1,1.7-0.5,2.4-0.8
		c0.3-0.1,0.6-0.3,0.7-0.3c0.4-0.1,0.7-0.1,1-0.1c0.7-0.1,1.4-0.1,1.9-1c0.2-0.3,0.5-0.7,0.8-1c0.1-0.1,0.3-0.3,0.4-0.4
		c1.2-0.9,2.7-0.5,3,0.5c0.4,1.3,1.1,2.4,1.6,3.3C61.6,35.3,62,36,61.9,36.9z"/>
	<path class="st0" d="M39.8,38.9C39.8,38.9,39.8,38.9,39.8,38.9c-0.2-0.5-0.9-0.8-1.4-0.5c-0.4,0.3-0.6,0.8-0.4,1.3
		c0.4,0.8,0.9,1.1,1.1,1.2c0.4,0.1,0.8,0.1,1-0.2c0.1-0.1,0.2-0.2,0.3-0.4c0.2-0.4,0-0.9-0.3-1.1C40,39.1,39.9,39,39.8,38.9z"/>
	<path class="st0" d="M50.9,52.9c-0.5-0.2-1,0-1.3,0.5c-0.1,0.2-0.2,0.4-0.3,0.5c-0.1,0.3-0.1,0.7,0,1.1l0,0c0.2,0.5,1,0.6,1.3,0.2
		c0,0,0.1-0.1,0.1-0.1c0.2-0.2,0.3-0.4,0.4-0.6c0-0.1,0.1-0.1,0.1-0.2C51.7,53.8,51.5,53.1,50.9,52.9z"/>
	<path class="st0" d="M45.6,40.9c-0.4,0.1-0.6,0.6-0.6,1c0,0.2,0,0.4-0.1,0.5c-0.2,0.3-0.1,0.8,0.1,1.1c0.2,0.3,0.5,0.4,0.9,0.4
		c0.2,0,0.8-0.2,0.8-0.7c0-1.1,0.6-0.8,0.3-1.8C46.8,40.7,46.2,40.7,45.6,40.9z"/>
	<path class="st0" d="M53.9,45.7c0.1-0.1,0.6-0.7,0.5-1.7c0-0.5-0.5-1-1-1c-0.5,0-1,0.5-1,1c0,0,0,0,0,0c0,0.2,0,0.3-0.1,0.5
		c-0.2,0.4-0.2,0.9,0.2,1.2c0.2,0.2,0.5,0.3,0.8,0.3C53.5,46,53.8,45.9,53.9,45.7z"/>
	<path class="st0" d="M53.7,47.8c-0.6,0.6-0.5,1.5-0.2,2c0.2,0.3,0.6,0.5,0.9,0.5c0.1,0,0.3-0.1,0.4-0.1c0.3-0.2,0.5-0.6,0.5-1
		c0-0.1,0-0.3,0.1-0.4c0.1-0.3,0.1-0.8-0.2-1.1C54.8,47.3,54.1,47.4,53.7,47.8z"/>
	<path class="st0" d="M44.7,48.5c0-0.7-0.6-1.2-1.1-1.1c-0.5,0.1-0.9,0.6-0.8,1.1c0,0.2,0.1,0.4,0.2,0.5c0.1,0.2,0.2,0.8,0.1,1
		c-0.2,1.2,1.9,1,1.9,0C45,49.7,44.7,49.3,44.7,48.5z"/>
	<path class="st0" d="M54.4,35.8c-0.4,0.1-0.8,0.4-1,0.9l0,0c0,0,0,0,0,0c-0.1,0.2-0.2,0.4-0.4,0.5c-0.2,0.2-0.3,0.6-0.3,0.9
		c0.1,0.4,0.4,0.7,0.7,0.8c0.1,0,0.3,0.1,0.5,0c0.5-0.1,0.8-0.4,1-0.7c0.1-0.2,0.4-0.4,0.6-0.5c0.1-0.1,0.2-0.1,0.3-0.2
		c0.4-0.4,0.3-1-0.1-1.4C55.5,35.9,54.9,35.7,54.4,35.8z M54.4,37.6c0,0,0.1,0.1,0.1,0.1C54.5,37.7,54.4,37.6,54.4,37.6z"/>
</g>
</svg>
