<?xml version="1.0" encoding="utf-8"?>
<!-- Generator: Adobe Illustrator 24.2.1, SVG Export Plug-In . SVG Version: 6.00 Build 0)  -->
<svg version="1.1" id="Ebene_1" xmlns="http://www.w3.org/2000/svg" xmlns:xlink="http://www.w3.org/1999/xlink" x="0px" y="0px"
	 viewBox="0 0 80 80" style="enable-background:new 0 0 80 80;" xml:space="preserve">
<style type="text/css">
	.st0{fill:#96694C;}
</style>
<g>
	<path class="st0" d="M61.8,21.2c0-1.7-1.4-3.1-3.1-3.1H45.6c-0.2,0-0.4,0.1-0.5,0.2h0c-0.1,0.1-0.2,0.2-0.3,0.4L44,20.3
		c-0.3-0.2-0.6-0.3-0.9-0.4l-0.8-0.2c-0.1,0-0.1,0-0.2,0c-0.2,0-0.3,0-0.4,0.1c-0.2,0.1-0.3,0.3-0.3,0.5l-0.1,0.7
		c-0.1,0.4,0,0.9,0.1,1.3l0,0.1c-0.7,0.4-1.1,0.9-1.3,1.3c-0.2,0.4-0.3,0.8-0.3,1.3c0,0.8-0.2,1.6-0.7,2.3l-0.4,0.6l0,0.1
		c-0.2,0.5-0.2,1-0.2,1.4l0.5,3.8c0,0.1,0,0.2-0.1,0.3l-1.7,3c-0.1,0.2-0.3,0.4-0.5,0.5c-0.2-0.5-0.6-0.9-1.1-1.1l-0.4-0.1
		c-0.2-0.1-0.3-0.1-0.5-0.1c-0.4,0-0.8,0.2-1.2,0.4l-0.3,0.3c-0.2,0.1-0.3,0.3-0.4,0.5l-3.2-2.4c-0.3-0.2-0.6-0.3-1-0.3l-1.5,0
		l0-0.6c0-0.5,0-1-0.2-1.5l-0.3-0.9c-0.1-0.2-0.3-0.4-0.5-0.5c-0.1,0-0.2-0.1-0.3-0.1c-0.1,0-0.2,0-0.4,0.1l-0.9,0.4
		c-0.5,0.2-0.9,0.5-1.2,0.9L21.9,29c-0.2-0.5-0.7-0.8-1.2-0.8c-0.1,0-0.2,0-0.2,0l-1.4,0.2c-0.7,0.1-1.1,0.7-1.1,1.3l0,6.4l0,0v22.6
		c0,1.7,1.4,3.1,3.1,3.1h37.7c1.7,0,3.1-1.4,3.1-3.1V29.2l0,0l0,0V21.2z M29.2,37.3c0.1-0.2,0.2-0.3,0.4-0.3c0.1,0,0.2,0,0.2,0.1
		l2.8,2.1l0,0c0.1,0.1,0.3,0.2,0.4,0.2c0.2,0.1,0.3,0.3,0.3,0.5l0,12.8c0,0.2-0.2,0.4-0.4,0.4c0,0,0,0,0,0L27,52.6
		c-0.2,0-0.4-0.2-0.4-0.4l-0.1-5.2c0,0,0-0.1,0-0.1L29.2,37.3z M24.2,33c0.2-0.3,0.5-0.5,0.8-0.7l0.3-0.1c0,0,0,0,0.1,0
		c0.1,0,0.1,0,0.2,0.1l0.1,0.4c0.1,0.3,0.2,0.7,0.1,1l0,0.6l-1.3,0c-0.2,0-0.3-0.1-0.4-0.2l-0.3-0.6L24.2,33z M19.8,30.5
		c0-0.2,0.1-0.3,0.3-0.4c0,0,0,0,0.1,0c0.1,0,0.3,0.1,0.3,0.2l2.1,4.8c0.2,0.6,0.8,0.9,1.4,0.9l3.2,0c0.2,0,0.3,0.1,0.2,0.3
		l-2.8,9.7c-0.1,0.2-0.2,0.3-0.4,0.3c0,0-0.1,0-0.1,0l-3.9-1c-0.2,0-0.3-0.2-0.3-0.4v-9.3c0,0,0,0,0,0L19.8,30.5z M20.6,57.8
		c-0.1,0.1-0.2,0.2-0.3,0.2c-0.2,0-0.4-0.2-0.4-0.4v-9.8c0-0.2,0.2-0.4,0.4-0.4c0,0,0.1,0,0.1,0l3.9,1c0.2,0,0.3,0.2,0.3,0.4
		l0.1,3.8c0,0.1,0,0.2-0.1,0.3L20.6,57.8z M33.1,59.8c0,0.2-0.2,0.4-0.4,0.4H22c-0.4,0-0.6-0.4-0.3-0.7l4-5c0.1-0.1,0.2-0.2,0.3-0.2
		c0,0,0,0,0,0L33,55c0.2,0,0.4,0.2,0.4,0.5L33.1,59.8z M48.7,20h7.8c0.4,0,0.6,0.4,0.3,0.7l-3.9,5c-0.1,0.1-0.2,0.2-0.3,0.2
		c-0.1,0-0.3-0.1-0.3-0.2l-3.8-5C48.2,20.4,48.4,20,48.7,20z M57.2,29.4c0.2,0,0.2,0.2,0.1,0.3l-1.6,0.9L50.9,33
		c-0.3,0.1-0.6,0.2-0.9,0.2l-4.2,0.1c0,0,0,0,0,0c-0.2,0-0.3-0.2-0.3-0.4l0.1-3.2c0-0.2,0.2-0.3,0.3-0.3H57.2z M42.5,21.3l0-0.1
		c0-0.1,0.1-0.1,0.1-0.1c0,0,0,0,0,0l0.2,0c0.2,0,0.4,0.1,0.5,0.2c-0.1,0.1-0.2,0.1-0.3,0.2c-0.2,0.1-0.4,0.2-0.6,0.4
		C42.5,21.7,42.5,21.5,42.5,21.3z M41.6,25.8c0-0.1,0-0.3,0-0.5c0-0.5,0.3-1,0.7-1.2c0,0,0.1,0,0.1-0.1c0.2-0.1,1-0.6,1.7-1
		c0.6-0.4,1.1-0.9,1.4-1.5l0.3-0.6c0-0.1,0.1-0.1,0.2-0.1c0.1,0,0.2,0,0.2,0.1l4.6,5.9c0.2,0.3,0,0.7-0.3,0.7h-5
		c-0.5,0-1.1-0.1-1.6-0.3l-2.1-0.9C41.7,26.3,41.6,26.1,41.6,25.8z M40.3,29c0-0.1,0.1-0.3,0.1-0.4l0.2-0.2c0.1-0.1,0.1-0.2,0.1-0.2
		c0.1-0.1,0.1-0.1,0.2-0.1c0,0,0.1,0,0.1,0l0,0l2.3,0.9c0.1,0.1,0.2,0.2,0.2,0.3L43.5,33c0,0.2-0.2,0.3-0.3,0.3l-2,0.1c0,0,0,0,0,0
		c-0.2,0-0.4-0.1-0.4-0.3l0,0l-0.5-3.8C40.3,29.2,40.3,29.1,40.3,29z M38.8,37.5L38.8,37.5l1.1-2c0.1-0.1,0.2-0.2,0.3-0.2L50.3,35
		c0,0,0,0,0,0c0.4,0,0.7,0.1,1.1,0.3l4.2,2.3c0.2,0.1,0.3,0.4,0.1,0.6L48.5,48c-0.1,0.1-0.2,0.2-0.3,0.2c-0.1,0-0.2,0-0.3-0.1
		l-9-10.1C38.7,37.8,38.7,37.6,38.8,37.5z M35.6,39.5l1.3-0.6c0.1,0,0.1,0,0.2,0c0.1,0,0.2,0,0.3,0.1l9.4,10.4
		c0.1,0.1,0.1,0.4,0,0.5l-3.3,5c-0.1,0.1-0.2,0.2-0.4,0.2c0,0-0.1,0-0.1,0l-7.5-1.6c-0.2,0-0.3-0.2-0.3-0.4l0-13.2
		c0-0.2,0.1-0.3,0.3-0.4C35.5,39.5,35.5,39.5,35.6,39.5z M34.3,37.9c-0.2,0-0.4,0-0.6-0.1c0-0.1,0.1-0.3,0.2-0.3l0.3-0.3
		c0.1-0.1,0.2-0.1,0.3-0.1c0,0,0.1,0,0.1,0l0.4,0.1c0.2,0.1,0.3,0.2,0.3,0.4l0,0l-0.7,0.3C34.7,37.9,34.5,37.9,34.3,37.9z M42,57.4
		L40.2,60c-0.1,0.1-0.2,0.2-0.4,0.2h-4.5c-0.2,0-0.4-0.2-0.4-0.5l0.2-3.9c0-0.2,0.2-0.4,0.4-0.4c0,0,0.1,0,0.1,0l6,1.3
		C42,56.8,42.1,57.2,42,57.4z M51.3,60.2h-8.2c-0.3,0-0.6-0.4-0.4-0.7l5-7.4l5.6-7.5c0.1-0.1,0.2-0.1,0.3-0.1c0.1,0,0.3,0.1,0.3,0.3
		l1.4,8.8c0,0.3,0,0.6-0.2,0.8L51.7,60C51.6,60.1,51.5,60.2,51.3,60.2z M60,58.9c0,0.7-0.6,1.2-1.2,1.2h-4.5c-0.2,0-0.4-0.2-0.2-0.4
		l2.5-4.1c0.3-0.4,0.7-0.8,1.1-1l1.7-0.7c0.1,0,0.1,0,0.2,0c0.2,0,0.4,0.2,0.4,0.4V58.9z M60,51.4c0,0.2-0.1,0.3-0.3,0.4l-2.2,0.9
		c-0.1,0-0.1,0-0.2,0c-0.2,0-0.4-0.1-0.4-0.4l-1.6-10.3c0-0.1,0-0.2,0.1-0.3l2-2.7c0.1-0.1,0.2-0.2,0.3-0.2c0.1,0,0.1,0,0.2,0.1
		l2,1.1V51.4z M60,37.2c0,0.3-0.2,0.4-0.4,0.4c-0.1,0-0.1,0-0.2-0.1l-5.5-3.2c-0.3-0.2-0.3-0.6,0-0.8l5.5-2.9c0.1,0,0.1,0,0.2,0
		c0.2,0,0.4,0.2,0.4,0.4V37.2z M60,27.1c0,0.2-0.2,0.4-0.4,0.4h-5.3c-0.2,0-0.3-0.3-0.2-0.4l5.1-6.4c0.1-0.1,0.2-0.2,0.3-0.2
		c0.2,0,0.3,0.1,0.4,0.3c0,0.1,0.1,0.3,0.1,0.4V27.1z"/>
	<path class="st0" d="M40,0C17.9,0,0,17.9,0,40s17.9,40,40,40s40-17.9,40-40S62.1,0,40,0z M66.1,66.1c-3.4,3.4-7.3,6.1-11.7,7.9
		C49.8,76,45,76.9,40,76.9s-9.8-1-14.4-2.9c-4.4-1.9-8.3-4.5-11.7-7.9c-3.4-3.4-6.1-7.3-7.9-11.7C4,49.8,3.1,45,3.1,40
		c0-5,1-9.8,2.9-14.4c1.9-4.4,4.5-8.3,7.9-11.7S21.2,7.8,25.6,6C30.2,4,35,3.1,40,3.1S49.8,4,54.4,6c4.4,1.9,8.3,4.5,11.7,7.9
		c3.4,3.4,6.1,7.3,7.9,11.7C76,30.2,76.9,35,76.9,40c0,5-1,9.8-2.9,14.4C72.2,58.8,69.5,62.7,66.1,66.1z"/>
</g>
</svg>
