<?xml version="1.0" encoding="utf-8"?>
<!-- Generator: Adobe Illustrator 24.2.1, SVG Export Plug-In . SVG Version: 6.00 Build 0)  -->
<svg version="1.1" id="Ebene_1" xmlns="http://www.w3.org/2000/svg" xmlns:xlink="http://www.w3.org/1999/xlink" x="0px" y="0px"
	 viewBox="0 0 80 80" style="enable-background:new 0 0 80 80;" xml:space="preserve">
<style type="text/css">
	.st0{fill:#96694C;}
</style>
<g>
	<path class="st0" d="M54,18c-0.5-1.5-2.2-2.3-3.7-1.7l-11.5,4.2c-0.2,0.1-0.3,0.2-0.4,0.3l0,0c-0.1,0.1-0.1,0.3-0.2,0.4l0,0.1
		c-0.2-0.4-0.6-0.7-1-0.8l-2.6-1.2c-0.6-0.3-1.2-0.3-1.8-0.1c-0.6,0.2-1.1,0.7-1.4,1.2L31,21.3c-0.1,0-0.2,0-0.3,0l-0.3-1
		c-0.4-1.2-1.8-1.9-3.1-1.4l-2.7,1c-1.2,0.4-1.9,1.8-1.4,3.1l0.3,1c-0.1,0.1-0.2,0.1-0.2,0.2l-0.9-0.4c-0.6-0.3-1.2-0.3-1.8-0.1
		c-0.6,0.2-1.1,0.7-1.4,1.2l-1.2,2.6c-0.3,0.6-0.3,1.2-0.1,1.8c0.2,0.6,0.7,1.1,1.2,1.4l0.9,0.4c0,0.1,0,0.2,0,0.3l-1,0.3
		c-1.2,0.4-1.9,1.8-1.4,3.1l1,2.7c0.1,0.2,0.1,0.3,0.2,0.4c-0.4,0.3-0.6,0.9-0.4,1.4l2.1,5.6l0,0l7.2,19.8c0.5,1.5,2.2,2.3,3.7,1.7
		l33-11.9c1.5-0.5,2.3-2.2,1.7-3.7l-9.4-25.9l0,0l0,0L54,18z M42.2,21.1l6.8-2.5c0.3-0.1,0.6,0.2,0.5,0.5l-1.9,5.6
		c0,0.1-0.1,0.2-0.2,0.3c-0.1,0-0.2,0-0.4,0l-4.9-3.1C41.8,21.6,41.9,21.2,42.2,21.1z M30.5,42.4c0-0.2,0.1-0.3,0.2-0.4
		c0.1,0,0.1,0,0.2,0l3.1,0.9l0,0c0.2,0,0.3,0.1,0.5,0.1c0.2,0,0.4,0.2,0.4,0.3L39,54.6c0.1,0.2,0,0.4-0.2,0.5c0,0,0,0,0,0l-5.3,1.4
		c-0.2,0.1-0.4-0.1-0.5-0.2l-1.7-4.5c0,0,0-0.1,0-0.1L30.5,42.4z M36.7,42.4c0,0,0.1-0.1,0.1-0.1l1-0.9c0,0,0.1-0.1,0.1-0.1
		c0.1,0,0.2,0,0.3,0l11.5,6.2c0.2,0.1,0.2,0.3,0.2,0.5l-1.3,5.4c0,0.1-0.1,0.2-0.3,0.3c0,0-0.1,0-0.1,0l-7,1c-0.2,0-0.4-0.1-0.4-0.3
		l-4.2-11.5C36.5,42.7,36.6,42.5,36.7,42.4z M39.2,39.9C39,39.8,39,39.7,39,39.5l0,0l0.4-2.1c0-0.1,0.1-0.2,0.2-0.3l8.7-3.4
		c0,0,0,0,0,0c0.3-0.1,0.7-0.1,1-0.1l4.4,0.7c0.2,0,0.4,0.3,0.3,0.5l-3.2,10.8c0,0.1-0.1,0.2-0.2,0.3c-0.1,0-0.2,0-0.3,0L39.2,39.9z
		 M37.7,31.7c0-0.1,0-0.3,0-0.4l0.1-0.3c0-0.1,0-0.2,0.1-0.2c0-0.1,0.1-0.2,0.2-0.2c0,0,0.1,0,0.1,0l0,0l2.3,0.1
		c0.1,0,0.2,0.1,0.3,0.2l1.1,3.2c0.1,0.2,0,0.3-0.2,0.4l-1.7,0.7c0,0,0,0,0,0c-0.2,0.1-0.4,0-0.5-0.2l0,0l-1.6-3.1
		C37.7,31.8,37.7,31.7,37.7,31.7z M48.2,31.8c-0.2,0.2-0.5,0.4-0.7,0.5l-3.7,1.4c0,0,0,0,0,0c-0.2,0.1-0.4,0-0.4-0.2l-1-2.8
		c-0.1-0.2,0-0.3,0.2-0.4l10-3.6c0.2-0.1,0.3,0.1,0.2,0.3l-1.1,1.3L48.2,31.8z M39.8,23.5l0.1-0.6c0-0.1,0.1-0.2,0.2-0.2
		c0.1,0,0.1,0,0.2,0l5.9,3.7c0.3,0.2,0.2,0.6-0.1,0.7l-4.3,1.6c-0.5,0.2-1,0.2-1.5,0.2l-2.1-0.1c-0.2,0-0.4-0.2-0.4-0.4
		c0-0.1-0.1-0.3-0.1-0.4c-0.1-0.4-0.1-0.9,0.2-1.3c0,0,0-0.1,0.1-0.1c0.1-0.1,0.7-0.9,1.1-1.4C39.5,24.7,39.7,24.1,39.8,23.5z
		 M19.2,34.2c-0.1-0.3,0.1-0.7,0.4-0.8l1-0.4c0.6-0.2,1.1-0.8,1.1-1.5c0-0.1,0-0.3,0-0.4c0-0.7-0.3-1.3-0.9-1.6l-1-0.5
		c-0.2-0.1-0.3-0.2-0.3-0.4c-0.1-0.2,0-0.3,0-0.5l1.2-2.6c0.1-0.2,0.2-0.3,0.4-0.3c0.2-0.1,0.3,0,0.5,0l1,0.5
		c0.6,0.3,1.3,0.2,1.8-0.3c0.1-0.1,0.2-0.2,0.3-0.3c0.5-0.4,0.7-1.1,0.5-1.8l-0.4-1c-0.1-0.3,0.1-0.7,0.4-0.8l2.7-1
		c0.3-0.1,0.7,0.1,0.8,0.4l0.4,1c0.2,0.6,0.8,1.1,1.5,1.1c0.1,0,0.3,0,0.4,0c0.7,0,1.3-0.3,1.6-0.9l0.5-1c0.1-0.2,0.2-0.3,0.4-0.3
		c0.2-0.1,0.3,0,0.5,0l2.6,1.2c0.2,0.1,0.3,0.2,0.3,0.4c0.1,0.2,0,0.3,0,0.5l-0.5,1c-0.3,0.6-0.2,1.3,0.2,1.7
		c-0.4,0.7-0.7,1.3-0.7,1.4c-0.1,0.4,0,0.8,0.1,1.2c0.3,0.7,0.3,1.5,0.1,2.2L36,30.9c-0.1-0.4-0.1-0.7-0.3-1.1
		c-1.1-2.9-4.3-4.5-7.2-3.4c-2.9,1.1-4.5,4.3-3.4,7.3c1.1,2.9,4.3,4.5,7.2,3.4c2.2-0.8,3.6-2.8,3.7-4.9c0,0.2,0.1,0.3,0.2,0.5
		l1.6,3.1c0,0.1,0.1,0.2,0,0.3l-0.3,1.5c-0.4,0-0.9,0.1-1.2,0.5c-0.1,0.1-0.2,0.2-0.3,0.3c-0.5,0.4-0.7,1.1-0.5,1.8l0.3,0.8
		l-0.2,0.2c-0.1,0.1-0.3,0.2-0.4,0.3c-0.2,0.1-0.4,0.1-0.5,0.1L33.5,41L30,40c-0.3-0.1-0.7-0.1-1,0l-1.3,0.5l-1.1,0.4l-1.2,0.4
		c-0.1,0-0.3,0-0.4-0.1l-0.4-0.4l-0.5-0.5l0.3-0.6c0.3-0.6,0.2-1.3-0.3-1.8c-0.1-0.1-0.2-0.2-0.3-0.3c-0.4-0.5-1.1-0.7-1.8-0.5
		l-0.8,0.3c-0.3-0.2-0.6-0.2-1-0.1c0-0.1-0.1-0.1-0.1-0.2L19.2,34.2z M34.1,30.4c0.7,2-0.3,4.3-2.3,5c-2,0.7-4.2-0.3-5-2.4
		c-0.7-2,0.3-4.3,2.3-5C31.1,27.3,33.3,28.4,34.1,30.4z M20.2,39.5c-0.1-0.2,0-0.3,0.2-0.4c0,0,0,0,0.1,0c0.1,0,0.3,0,0.4,0.1
		l3.3,3.5c0.4,0.4,1,0.6,1.5,0.4l2.8-1c0.1,0,0.3,0,0.3,0.2l0.6,9.3c0,0.2-0.1,0.3-0.3,0.4c0,0-0.1,0-0.1,0l-3.8,0.4
		c-0.2,0-0.4-0.1-0.4-0.3L21.9,44c0,0,0,0,0,0L20.2,39.5z M29.5,63.1c0,0.1-0.1,0.2-0.2,0.2c-0.2,0.1-0.4,0-0.5-0.2l-3.1-8.5
		c-0.1-0.2,0-0.4,0.2-0.5c0,0,0.1,0,0.1,0l3.7-0.3c0.2,0,0.3,0.1,0.4,0.3l1.3,3.3c0,0.1,0,0.2,0,0.3L29.5,63.1z M41.1,60.8
		c0.1,0.2,0,0.4-0.2,0.5l-9.4,3.4c-0.3,0.1-0.6-0.2-0.5-0.5l1.9-5.6c0-0.1,0.1-0.2,0.2-0.2c0,0,0,0,0,0l6.3-1.6
		c0.2-0.1,0.4,0.1,0.5,0.3L41.1,60.8z M48.1,56l-0.7,2.8c0,0.1-0.1,0.2-0.3,0.3l-3.9,1.4c-0.2,0.1-0.5,0-0.5-0.3l-1-3.4
		c-0.1-0.2,0.1-0.4,0.2-0.5c0,0,0.1,0,0.1,0l5.7-0.8C47.9,55.4,48.2,55.7,48.1,56z M57.2,55.4L50,58c-0.3,0.1-0.6-0.2-0.5-0.5l2-8
		l2.5-8.3c0-0.1,0.1-0.2,0.2-0.2c0.1,0,0.3,0,0.4,0.1l4,7.3c0.1,0.2,0.2,0.5,0.1,0.8l-1.2,5.9C57.4,55.2,57.3,55.4,57.2,55.4z
		 M64.3,51.6c0.2,0.6-0.1,1.3-0.7,1.5l-3.9,1.4c-0.2,0.1-0.4-0.1-0.4-0.3l0.9-4.4c0.1-0.5,0.3-0.9,0.7-1.2l1.3-1.2
		c0,0,0.1-0.1,0.1-0.1c0.2-0.1,0.4,0,0.5,0.2L64.3,51.6z M62,45c0.1,0.2,0,0.3-0.1,0.4l-1.6,1.5c0,0-0.1,0.1-0.1,0.1
		c-0.2,0.1-0.4,0-0.5-0.2l-4.7-8.5c-0.1-0.1-0.1-0.2,0-0.3l0.9-3c0-0.1,0.1-0.2,0.2-0.3c0.1,0,0.1,0,0.2,0l2.1,0.4L62,45z
		 M57.5,32.6c0.1,0.2,0,0.4-0.2,0.5c-0.1,0-0.1,0-0.2,0l-5.8-1c-0.3-0.1-0.4-0.4-0.2-0.7l3.9-4.3c0,0,0.1-0.1,0.2-0.1
		c0.2-0.1,0.4,0,0.5,0.2L57.5,32.6z M54.3,23.8c0.1,0.2,0,0.4-0.2,0.5l-4.6,1.7c-0.2,0.1-0.4-0.1-0.3-0.3l2.4-7.2
		c0-0.1,0.1-0.2,0.2-0.3c0.2-0.1,0.3,0,0.4,0.1c0.1,0.1,0.2,0.2,0.2,0.3L54.3,23.8z"/>
	<path class="st0" d="M40,0C17.9,0,0,17.9,0,40s17.9,40,40,40s40-17.9,40-40S62.1,0,40,0z M66.1,66.1c-3.4,3.4-7.3,6.1-11.7,7.9
		C49.8,76,45,76.9,40,76.9s-9.8-1-14.4-2.9c-4.4-1.9-8.3-4.5-11.7-7.9c-3.4-3.4-6.1-7.3-7.9-11.7C4,49.8,3.1,45,3.1,40
		c0-5,1-9.8,2.9-14.4c1.9-4.4,4.5-8.3,7.9-11.7S21.2,7.8,25.6,6C30.2,4,35,3.1,40,3.1S49.8,4,54.4,6c4.4,1.9,8.3,4.5,11.7,7.9
		c3.4,3.4,6.1,7.3,7.9,11.7C76,30.2,76.9,35,76.9,40c0,5-1,9.8-2.9,14.4C72.2,58.8,69.5,62.7,66.1,66.1z"/>
</g>
</svg>
