<?xml version="1.0" encoding="utf-8"?>
<!-- Generator: Adobe Illustrator 24.2.1, SVG Export Plug-In . SVG Version: 6.00 Build 0)  -->
<svg version="1.1" id="Ebene_1" xmlns="http://www.w3.org/2000/svg" xmlns:xlink="http://www.w3.org/1999/xlink" x="0px" y="0px"
	 viewBox="0 0 80 80" style="enable-background:new 0 0 80 80;" xml:space="preserve">
<style type="text/css">
	.st0{fill:#96694C;}
</style>
<g>
	<path class="st0" d="M53,27.2c-1.9-2.9-4.9-4.6-8.2-4.6c-0.6,0-1.2,0.1-1.8,0.2l0,0c-1.8,0.3-3.5,1.5-4.7,3.1l-1.6-2.6
		c-0.2-0.2-0.4-0.2-0.7-0.2c-0.1,0-0.1,0-0.2,0l-2.5,1c0,0,0,0,0,0c-0.4,0-2.8-0.6-3-0.6l-1.6-0.2c0,0-0.1,0-0.1,0
		c-0.3,0-0.7,0.2-0.9,0.4c0,0-1,1.9-1.6,3.4c-0.4,0.9-0.4,1.9-0.1,2.8c0,0.1,0.1,0.2,0.1,0.3c0.2,0.6,0.6,1.3,1,1.8
		c1.1,1.2,0.1,2.1,0,3.3c0,0.3,0.5,1.5,0.7,1.6l10.6,8.4c0.2,0.2,0.4,0.4,0.7,0.4c0.1,0,0.3,0,0.4-0.1l1.3-0.5
		c2.8-1.2,5.4-2.9,7.8-5.2l2.6-2.5c0.8-0.8,1.5-1.8,2-2.9l0,0C54.4,32.1,54.3,29.2,53,27.2L53,27.2z M29.3,35.8
		c-0.1-0.1-0.1-0.3-0.2-0.4c0-0.1,0.1-0.3,0.1-0.4c0.3-0.9,0.8-2.5-0.7-4.1c-0.3-0.3-0.5-0.7-0.6-1.1l-0.1-0.3c-0.2-0.5-0.2-1,0-1.5
		c0.3-0.7,0.7-1.6,1-2.3c0.1-0.3,0.4-0.4,0.7-0.4l0.5,0c0.1,0,0.5,0.1,0.8,0.2c1.5,0.4,2.1,0.5,2.5,0.5c0.1,0,0.3,0,0.4,0l0.2,0
		l0.2-0.1l1.4-0.6c0.2-0.1,0.3,0,0.4,0.1l1.4,2.3c-0.4,1.1-0.7,2.2-0.7,3.3l-0.1,3.6c-0.1,2.6,0.3,5.2,0.9,7.5L29.3,35.8z
		 M51.6,33.9c-0.4,0.9-0.9,1.7-1.6,2.3l-2.6,2.5c-2.2,2.1-4.6,3.7-7.2,4.8l-0.5,0.2l-0.2-0.5c-1-2.6-1.4-5.5-1.3-8.5l0.1-3.6
		c0-0.9,0.2-1.8,0.6-2.7l0,0l0,0c0.9-2,2.5-3.4,4.3-3.8c0.5-0.1,1-0.1,1.5-0.1c2.7,0,5.1,1.4,6.7,3.7C52.4,29.7,52.5,31.9,51.6,33.9
		z"/>
	<path class="st0" d="M40,0C17.9,0,0,17.9,0,40s17.9,40,40,40s40-17.9,40-40S62.1,0,40,0z M4.6,50.5c2.5,0.7,5.2,0.9,8.1,0.8l0.1,0
		c1.4-0.2,2.5-0.6,3.4-1.2c1.3-0.9,2.7-1.4,4-1.5l0,0c3.2-0.4,6.2,0,9.5,0.4l0.2,0c1.1,0.2,2.1,0.6,3.3,1.1c0.5,0.2,1,0.4,1.5,0.6
		l0,0c0.4,0.1,1.1,0.3,1.8,0.4c1.6,0,3.2,0,4.7-0.1c3.4-0.1,6.7-0.3,9.8,0.7c0.3,0.1,0.5,0.4,0.6,0.7c0,0.2,0,0.3,0,0.6
		c0,0.1,0,0.2,0,0.3c0,0.2-0.2,0.7-1.2,0.8c-3.7,0.2-7.6,0.3-11.5,0.8c-1.4,0.1-2.7,0.4-3.9,0.7C34,55.7,33,55.9,32.1,56l0,0
		c-0.4,0.1-0.8,0-1.3,0c-0.3,0-0.7-0.1-1-0.1c-0.2,0-0.3,0.1-0.3,0.3l0.1,1.3c0,0.1,0.1,0.3,0.3,0.3c0.2,0,0.5,0,0.7,0.1
		c0.4,0,0.7,0.1,1.1,0.1c0.2,0,0.5,0,0.7-0.1c1-0.1,2-0.4,3-0.6c1.3-0.3,2.4-0.6,3.7-0.6l0,0c3.8-0.5,7.7-0.6,11.4-0.8l0.1,0
		c1.6-0.3,2.6-1.2,2.7-2.5l0-0.1v-0.1c0-0.1,0-0.2,0-0.4c0-0.2,0-0.5,0-0.8l6.7-1.9l4-0.6l0.1,0c0,0,2.3-0.5,3.8-0.4
		c1.5,0,1.8,0.4,1.8,0.4c0.1,0.1,0.2,0.3,0.2,0.4c-0.1,0.3-0.8,0.7-2.1,1c-0.6,0.1-1.3,0.3-2,0.6c-0.8,0.3-1.7,0.5-2.6,0.8
		c-1.5,0.5-3,0.9-4.5,1.4c-1.6,0.5-3.2,1.2-4.7,1.9l-1.7,0.8c-1.6,0.8-3.3,1.4-5,1.9l-1.1,0.3c-1.3,0.3-2.5,0.8-3.6,1.3
		c-0.9,0.4-1.9,0.8-2.8,1.1c-1.6,0.5-5.3,0.2-6.6,0c-0.4,0-0.6-0.1-0.7-0.1c0,0,0,0,0,0c-0.2,0-0.6,0-0.9,0
		c-1.8-0.1-5.2-0.2-11.2,0.7c-0.8,0.1-1.7,0.3-2.6,0.5c-2.2,0.5-4.5,1-6.7,0.7c-2-2.6-3.7-5.4-5-8.5C5.4,53.1,5,51.8,4.6,50.5z
		 M51.8,50l1.1-0.3c0.9-0.2,1.9-0.4,2.9-0.5l1.1-0.1c0,0,0,0,0,0l-4.3,1.2l-0.1-0.2l-0.2-0.1C52.1,50.1,52,50,51.8,50z M66.1,66.1
		c-3.4,3.4-7.3,6.1-11.7,7.9C49.8,76,45,76.9,40,76.9c-5,0-9.8-1-14.4-2.9c-4.4-1.9-8.3-4.5-11.7-7.9c-0.4-0.4-0.9-0.9-1.3-1.3
		c1.9,0,3.7-0.4,5.4-0.8c0.9-0.2,1.7-0.4,2.5-0.5c5.8-0.9,9.1-0.8,10.8-0.7c0.4,0,0.7,0,1,0c0.1,0,0.3,0,0.5,0
		c2.5,0.3,5.6,0.5,7.4-0.1c1-0.3,2-0.7,2.9-1.1c1.2-0.5,2.3-0.9,3.4-1.2l1.1-0.3c1.8-0.5,3.6-1.2,5.3-2l1.7-0.8
		c1.4-0.7,2.9-1.3,4.4-1.8c1.5-0.5,3-1,4.5-1.4c0.9-0.3,1.8-0.5,2.6-0.8c0.7-0.2,1.3-0.4,1.9-0.5c1.9-0.5,3-1.2,3.4-2.2
		c0.2-0.5,0.3-1.2-0.4-2.1c-0.5-0.7-1.6-1.1-3.3-1.2c-1.7-0.1-3.9,0.4-4.2,0.5L60,48.3c-0.6-0.4-1.2-0.8-2-0.9
		c-0.4-0.1-0.9-0.1-1.3-0.1l-1.1,0.1c-1.1,0.1-2.1,0.3-3.2,0.5l-4.8,1.2c-2.2-0.2-4.4-0.1-6.6,0c-1.5,0.1-3.1,0.1-4.6,0.1l0,0
		c-0.3,0-0.8-0.1-1.2-0.3c-0.5-0.2-0.9-0.4-1.4-0.5c-1.2-0.5-2.3-0.9-3.6-1.2l-0.3,0c-3.4-0.5-6.5-0.9-9.9-0.4
		c-1.6,0.2-3.3,0.8-4.8,1.8c-0.7,0.5-1.6,0.8-2.6,0.9c-3.2,0.1-5.9-0.2-8.5-1c-0.6-2.7-1-5.6-1-8.4c0-5,1-9.8,2.9-14.4
		c1.9-4.4,4.5-8.3,7.9-11.7c3.4-3.4,7.3-6.1,11.7-7.9C30.2,4,35,3.1,40,3.1c5,0,9.8,1,14.4,2.9c4.4,1.9,8.3,4.5,11.7,7.9
		c3.4,3.4,6.1,7.3,7.9,11.7C76,30.2,76.9,35,76.9,40c0,5-1,9.8-2.9,14.4C72.2,58.8,69.5,62.7,66.1,66.1z"/>
</g>
</svg>
