<?xml version="1.0" encoding="utf-8"?>
<!-- Generator: Adobe Illustrator 24.2.1, SVG Export Plug-In . SVG Version: 6.00 Build 0)  -->
<svg version="1.1" id="Ebene_1" xmlns="http://www.w3.org/2000/svg" xmlns:xlink="http://www.w3.org/1999/xlink" x="0px" y="0px"
	 viewBox="0 0 80 80" style="enable-background:new 0 0 80 80;" xml:space="preserve">
<style type="text/css">
	.st0{fill:#96694C;}
</style>
<rect x="2" y="38.6" transform="matrix(0.8006 -0.5992 0.5992 0.8006 -15.992 31.9442)" class="st0" width="76" height="2.8"/>
<path class="st0" d="M62.6,39l-2.3-3.5c-0.3-0.4-0.5-0.8-0.7-1.3c-2.2-4.6-7.5-3.9-9.4-3.6l-3,0.4c-0.1,0-0.1-0.1-0.1-0.1
	c1.5-2.1,3.3-3.9,5.5-5.3l4-2.7c0.5-0.3,0.8-0.9,0.7-1.5c-0.1-0.6-0.6-1.1-1.2-1.2l-3.8-0.5c-0.4-0.1-0.9-0.2-1.4-0.3
	c-2-0.6-3.9-0.1-5.7,1.2c-1.4,1.1-2.3,2.4-2.8,3.2L40,27.4L37.7,24l-0.1-0.2c-0.9-1.4-3.8-5.7-8.4-4.4c-0.5,0.1-0.9,0.2-1.4,0.3
	l-3.8,0.5c-0.6,0.1-1.1,0.5-1.3,1.1c-0.2,0.6,0.1,1.2,0.6,1.6l4,2.7l0,0c2.2,1.4,4.1,3.2,5.5,5.3c0,0.1,0,0.2-0.1,0.1l-2.7-0.3
	l-0.2,0c-2-0.3-7.2-0.9-9.4,3.6c-0.2,0.5-0.5,0.9-0.7,1.3L17.4,39c-0.4,0.5-0.4,1.2,0,1.8c0.3,0.4,0.7,0.6,1.2,0.6
	c0.1,0,0.3,0,0.4-0.1l5-1.4l0,0c1.5-0.5,3-0.7,4.6-0.8c0.1,0,0.1,0.1,0.1,0.2l-1.6,1.3l-0.2,0.1c-1.6,1.3-5.7,4.7-3.9,9.4
	c0.2,0.5,0.3,1,0.5,1.4l1,4.1c0.1,0.6,0.6,1.1,1.3,1.1c0.1,0,0.1,0,0.2,0c0.5,0,1-0.3,1.3-0.8l2.5-4.6l0,0c1.7-3.3,4.2-6.1,7.3-8.1
	l0,0c0.1-0.1,0.3,0,0.3,0.2c-0.1,7.4-0.5,14.9-0.9,22.2c-0.2,4.1-0.5,8.3-0.7,12.5c0.7,0.1,1.3,0.1,2,0.2c0.2-4.2,0.4-8.5,0.7-12.6
	c0.4-7.1,0.8-14.4,0.9-21.6c0-0.1,0.1-0.1,0.2-0.1c0.1,0,0.2,0,0.3,0c0.2,0,0.4,0,0.6-0.1c0.1,0,0.2,0,0.2,0.1
	c0.1,7.1,0.5,14.8,0.9,21.7c0.2,4.3,0.5,8.7,0.7,13c0.7,0,1.3,0,2,0.1c-0.2-4.4-0.4-8.9-0.7-13.2c-0.4-7.3-0.8-14.8-0.9-22.2
	c0-0.1,0.1-0.1,0.1-0.1c3.3,2,6,4.9,7.7,8.3l2.5,4.6c0.3,0.5,0.8,0.8,1.3,0.8c0.1,0,0.1,0,0.2,0c0.6-0.1,1.1-0.5,1.3-1.1l1-4.1
	c0.1-0.4,0.3-0.9,0.5-1.4c1.8-4.8-2.3-8.2-3.9-9.4l-2.2-1.8c-0.1,0,0-0.1,0-0.1c1.7,0.1,3.4,0.4,5,0.8l5,1.4c0.1,0,0.3,0.1,0.4,0.1
	c0.5,0,0.9-0.2,1.2-0.6C62.9,40.2,62.9,39.6,62.6,39z M41.3,29.1l2.7-4l0.1-0.2c1.4-2.1,3.4-4.4,6.3-3.6c0.6,0.2,1.1,0.3,1.6,0.3
	l1.9,0.3c0.2,0,0.3,0.3,0.1,0.4l-2.4,1.6c-3.3,2.1-6,5.1-7.7,8.6c0,0.1-0.1,0.1-0.2,0.1c-0.1-0.1-0.3-0.1-0.4-0.2
	c-0.4-0.2-0.9-0.2-1.4-0.2c-0.1,0-0.1-0.1-0.1-0.1c0.2-0.5,0.3-1.2-0.1-2.1l0-0.1l-0.3-0.4C41.2,29.3,41.2,29.2,41.3,29.1z
	 M28.4,23.9L26,22.3c-0.2-0.1-0.1-0.4,0.1-0.4l1.9-0.3c0.5-0.1,1-0.2,1.6-0.3c1.4-0.4,2.7-0.1,3.9,0.9c1.1,0.9,1.9,2,2.4,2.7
	l3.9,5.8c0,0-0.1,0.1-0.2,0.1c-1-0.4-2.2-0.3-3.2,0.2c-0.1,0.1-0.3,0.2-0.4,0.3c-0.1,0.1-0.2,0.1-0.3,0.1c-0.1,0-0.2-0.1-0.3-0.2
	C33.7,28.2,31.3,25.7,28.4,23.9z M23.5,38l-3.1,0.9c-0.2,0.1-0.3-0.2-0.2-0.3l1.2-1.9c0.3-0.5,0.6-1,0.9-1.5
	c0.7-1.4,1.8-2.2,3.5-2.6c0.6-0.1,1.1-0.1,1.7-0.1c0.9,0,1.7,0.1,2.2,0.2l4.5,0.6c0.2,0,0.3,0.2,0.2,0.3l0,0
	c-0.2,0.5-0.3,1.1-0.3,1.7c0,0.1-0.1,0.2-0.1,0.2c-0.2,0-0.4,0.1-0.5,0.2c-0.2,0.1-0.5,0.2-0.7,0.4l-1.2,1c-0.1,0.1-0.2,0.1-0.4,0.1
	C28.5,37,26,37.3,23.5,38z M36,41.6c-3.5,2.2-6.3,5.3-8.2,9l-1.6,2.9c-0.1,0.2-0.4,0.1-0.4-0.1l-0.5-2.2c-0.1-0.5-0.3-1.1-0.5-1.7
	c-1.3-3.4,1.9-6.1,3.3-7.2l5.8-4.8c0.1-0.1,0.2-0.1,0.2-0.2c0.2-0.1,0.3-0.1,0.4-0.1c0.3,0.6,0.8,1.1,1.3,1.4
	c0.1,0.1,0.2,0.2,0.1,0.3c-0.1,0.8-0.1,1.5,0.1,2.3C36.1,41.4,36.1,41.5,36,41.6z M37.2,37.2c-0.5-0.2-0.9-0.6-1.1-1.1
	c-0.2-0.6-0.2-1.2,0-1.9c0.2-0.6,0.7-1.1,1.2-1.4c0.3-0.2,0.6-0.2,0.9-0.2c0.2,0,0.4,0,0.6,0.1c0.5,0.2,0.9,0.6,1.1,1.1
	c0.2,0.6,0.2,1.2,0,1.9c-0.2,0.6-0.7,1.1-1.2,1.4C38.3,37.3,37.7,37.4,37.2,37.2z M39.1,41.9c-0.5-0.2-0.9-0.6-1.1-1.1
	c-0.2-0.4-0.2-0.9-0.1-1.3c0-0.1,0.1-0.2,0.2-0.2c0,0,0,0,0.1,0c0.1,0,0.2,0,0.2,0.1c0.4,0.6,1,1,1.7,1.2c0.4,0.2,0.9,0.2,1.3,0.2
	C41.6,40.9,40.6,42.4,39.1,41.9z M42.4,38.6c-0.5,0.3-1.1,0.3-1.6,0.1c-0.1,0-0.2-0.1-0.4-0.2c-0.1-0.1-0.1-0.2,0-0.2
	c0.6-0.5,1.1-1.2,1.4-2c0.3-0.7,0.4-1.4,0.3-2.1c0-0.1,0.1-0.2,0.2-0.1c0.1,0,0.1,0,0.2,0.1c0.5,0.2,0.9,0.6,1.1,1.1
	c0.2,0.6,0.2,1.2,0,1.9C43.4,37.8,42.9,38.3,42.4,38.6z M51.7,42.4l0.2,0.2c1.4,1.1,4.6,3.7,3.3,7.2c-0.2,0.6-0.4,1.2-0.5,1.7
	l-0.5,2.2c0,0.2-0.3,0.2-0.4,0.1l-1.6-2.9c-1.9-3.8-4.8-6.9-8.4-9.1c-0.1-0.1-0.2-0.2-0.1-0.3c0-0.1,0.1-0.2,0.1-0.3
	c0.1-0.3,0.2-0.6,0.2-0.9c0-0.1,0.1-0.2,0.2-0.2l0.4-0.1c0.9-0.3,1.9-0.5,2.8-0.6c0.2,0,0.4,0,0.6,0.2L51.7,42.4z M59.7,38.9
	L56.5,38c-3.5-1.1-7.2-1.2-10.7-0.5c-0.1,0-0.2-0.1-0.1-0.2c0.2-0.9,0.2-1.9-0.2-2.7c0-0.1-0.1-0.2-0.1-0.3c-0.1-0.1-0.1-0.3,0-0.4
	l0.2-0.5c0.1-0.2,0.2-0.3,0.4-0.3l4.2-0.5l0.2,0c2.7-0.3,6-0.4,7.4,2.5c0.3,0.6,0.6,1.1,0.9,1.5l1.2,1.9
	C60,38.7,59.9,38.9,59.7,38.9z"/>
<path class="st0" d="M40,0C17.9,0,0,17.9,0,40s17.9,40,40,40s40-17.9,40-40S62.1,0,40,0z M66.1,66.1c-3.4,3.4-7.3,6.1-11.7,7.9
	C49.8,76,45,76.9,40,76.9c-5,0-9.8-1-14.4-2.9c-4.4-1.9-8.3-4.5-11.7-7.9c-3.4-3.4-6.1-7.3-7.9-11.7C4,49.8,3.1,45,3.1,40
	c0-5,1-9.8,2.9-14.4c1.9-4.4,4.5-8.3,7.9-11.7S21.2,7.8,25.6,6C30.2,4,35,3.1,40,3.1c5,0,9.8,1,14.4,2.9c4.4,1.9,8.3,4.5,11.7,7.9
	c3.4,3.4,6.1,7.3,7.9,11.7C76,30.2,76.9,35,76.9,40c0,5-1,9.8-2.9,14.4C72.2,58.8,69.5,62.7,66.1,66.1z"/>
</svg>
