<?xml version="1.0" encoding="utf-8"?>
<!-- Generator: Adobe Illustrator 24.2.0, SVG Export Plug-In . SVG Version: 6.00 Build 0)  -->
<svg version="1.1" id="Capa_1" xmlns="http://www.w3.org/2000/svg" xmlns:xlink="http://www.w3.org/1999/xlink" x="0px" y="0px"
	 viewBox="0 0 15 15" style="enable-background:new 0 0 15 15;" xml:space="preserve">
<g>
	<g>
		<path d="M8.3,7.5L14.8,1c0.2-0.2,0.2-0.6,0-0.8c-0.2-0.2-0.6-0.2-0.8,0L7.5,6.7L1,0.2c-0.2-0.2-0.6-0.2-0.8,0s-0.2,0.6,0,0.8
			l6.5,6.5L0.2,14c-0.2,0.2-0.2,0.6,0,0.8C0.3,14.9,0.4,15,0.6,15s0.3-0.1,0.4-0.2l6.5-6.5l6.5,6.5c0.1,0.1,0.3,0.2,0.4,0.2
			s0.3-0.1,0.4-0.2c0.2-0.2,0.2-0.6,0-0.8L8.3,7.5z"/>
	</g>
</g>
</svg>
