<?xml version="1.0" encoding="utf-8"?>
<!-- Generator: Adobe Illustrator 24.2.0, SVG Export Plug-In . SVG Version: 6.00 Build 0)  -->
<svg version="1.1" id="Capa_1" xmlns="http://www.w3.org/2000/svg" xmlns:xlink="http://www.w3.org/1999/xlink" x="0px" y="0px"
	 viewBox="0 0 15 15" style="enable-background:new 0 0 15 15;" xml:space="preserve">
<g>
	<g>
		<path d="M14.4,6.9H8.1V0.6C8.1,0.3,7.8,0,7.5,0C7.2,0,6.9,0.3,6.9,0.6v6.3H0.6C0.3,6.9,0,7.2,0,7.5c0,0.3,0.3,0.6,0.6,0.6h6.3v6.3
			c0,0.3,0.3,0.6,0.6,0.6c0.3,0,0.6-0.3,0.6-0.6V8.1h6.3c0.3,0,0.6-0.3,0.6-0.6C15,7.2,14.7,6.9,14.4,6.9z"/>
	</g>
</g>
</svg>
