<?xml version="1.0" encoding="utf-8"?>
<!-- Generator: Adobe Illustrator 24.2.1, SVG Export Plug-In . SVG Version: 6.00 Build 0)  -->
<svg version="1.1" id="Capa_1" xmlns="http://www.w3.org/2000/svg" xmlns:xlink="http://www.w3.org/1999/xlink" x="0px" y="0px"
	 width="39px" height="40px" viewBox="0 0 39 40" style="enable-background:new 0 0 39 40;" xml:space="preserve">
<style type="text/css">
	.st0{fill:#FFFFFF;}
</style>
<g>
	<g>
		<path class="st0" d="M18.9,18.8H0.5c-0.6,0-1.1,0.5-1.1,1.1S-0.1,21,0.5,21h18.4c0.5,2.6,2.8,4.6,5.6,4.6s5.1-2,5.6-4.6h8.2
			c0.6,0,1.1-0.5,1.1-1.1s-0.5-1.1-1.1-1.1h-8.2c-0.5-2.6-2.8-4.6-5.6-4.6S19.4,16.2,18.9,18.8z M27.9,19.9c0,1.9-1.5,3.5-3.5,3.5
			s-3.5-1.5-3.5-3.5s1.5-3.5,3.5-3.5S27.9,18,27.9,19.9z"/>
		<path class="st0" d="M9.5,32.6h-9c-0.6,0-1.1,0.5-1.1,1.1c0,0.6,0.5,1.1,1.1,1.1h8.9c0.6,2.6,2.9,4.6,5.7,4.6s5.1-2,5.6-4.6h17.6
			c0.6,0,1.1-0.5,1.1-1.1c0-0.6-0.5-1.1-1.1-1.1H20.7C20.2,30,17.9,28,15.1,28S10,30,9.5,32.6z M18.5,33.7c0,1.9-1.5,3.5-3.5,3.5
			s-3.5-1.5-3.5-3.5s1.5-3.5,3.5-3.5S18.5,31.8,18.5,33.7z"/>
		<path class="st0" d="M9.5,5.1h-9c-0.6,0-1.1,0.5-1.1,1.1c0,0.7,0.5,1.2,1.1,1.2h8.9C9.9,10,12.2,12,15,12s5.1-2,5.6-4.6h17.6
			c0.6,0,1.1-0.5,1.1-1.1s-0.5-1.1-1.1-1.1H20.7c-0.5-2.6-2.8-4.6-5.6-4.6S10,2.5,9.5,5.1z M18.5,6.2c0,1.9-1.5,3.5-3.5,3.5
			s-3.5-1.5-3.5-3.5c0-1.9,1.5-3.5,3.5-3.5S18.5,4.3,18.5,6.2z"/>
	</g>
</g>
</svg>
