<?xml version="1.0" encoding="utf-8"?>
<!-- Generator: Adobe Illustrator 24.2.1, SVG Export Plug-In . SVG Version: 6.00 Build 0)  -->
<svg version="1.1" id="Capa_1" xmlns="http://www.w3.org/2000/svg" xmlns:xlink="http://www.w3.org/1999/xlink" x="0px" y="0px"
	 width="39px" height="40px" viewBox="0 0 39 40" style="enable-background:new 0 0 39 40;" xml:space="preserve">
<style type="text/css">
	.st0{fill:#FFFFFF;}
</style>
<g>
	<g>
		<path class="st0" d="M20.6,19.5V1.1c0-0.6-0.5-1.1-1.1-1.1c-0.6,0-1.1,0.5-1.1,1.1v18.4c-2.6,0.5-4.6,2.8-4.6,5.6s2,5.1,4.6,5.6
			v8.2c0,0.6,0.5,1.1,1.1,1.1c0.6,0,1.1-0.5,1.1-1.1v-8.2c2.6-0.5,4.6-2.8,4.6-5.6C25.2,22.3,23.2,20,20.6,19.5z M19.5,28.5
			c-1.9,0-3.5-1.5-3.5-3.5s1.5-3.5,3.5-3.5s3.5,1.5,3.5,3.5S21.4,28.5,19.5,28.5z"/>
		<path class="st0" d="M6.8,10.1V1.1C6.8,0.5,6.3,0,5.7,0S4.6,0.5,4.6,1.1v8.9C2,10.6,0,12.9,0,15.7s2,5.1,4.6,5.6v17.6
			c0,0.6,0.5,1.1,1.1,1.1s1.1-0.5,1.1-1.1V21.3c2.6-0.5,4.6-2.8,4.6-5.6S9.4,10.6,6.8,10.1z M5.7,19.1c-1.9,0-3.5-1.5-3.5-3.5
			s1.5-3.5,3.5-3.5s3.5,1.5,3.5,3.5S7.6,19.1,5.7,19.1z"/>
		<path class="st0" d="M34.3,10.1V1.1c0-0.6-0.5-1.1-1.1-1.1C32.5,0,32,0.5,32,1.1v8.9c-2.6,0.5-4.6,2.8-4.6,5.6s2,5.1,4.6,5.6v17.6
			c0,0.6,0.5,1.1,1.1,1.1c0.6,0,1.1-0.5,1.1-1.1V21.3c2.6-0.5,4.6-2.8,4.6-5.6S36.9,10.6,34.3,10.1z M33.2,19.1
			c-1.9,0-3.5-1.5-3.5-3.5s1.5-3.5,3.5-3.5c1.9,0,3.5,1.5,3.5,3.5S35.1,19.1,33.2,19.1z"/>
	</g>
</g>
</svg>
