<?xml version="1.0" encoding="utf-8"?>
<!-- Generator: Adobe Illustrator 24.2.3, SVG Export Plug-In . SVG Version: 6.00 Build 0)  -->
<svg version="1.1" id="Layer_1" xmlns="http://www.w3.org/2000/svg" xmlns:xlink="http://www.w3.org/1999/xlink" x="0px" y="0px"
	 width="24px" height="24px" viewBox="0 0 24 24" style="enable-background:new 0 0 24 24;" xml:space="preserve">
<style type="text/css">
	.st0{fill:#FFFFFF;}
</style>
<path class="st0" d="M2,22l1-4.5c0,0-3.8-3.4-1-10.7s13-5.4,13-5.4s7.6,0,7.6,10.6c0,13.4-12,11.3-12,11.3L6,22.4L2,22z"/>
<g>
	<path d="M20.5,3.5C18.2,1.2,15.2,0,12,0S5.8,1.2,3.5,3.5S0,8.8,0,12c0,2.1,0.6,4.2,1.6,6L0,24l6-1.6c1.8,1.1,3.9,1.6,6,1.6
		c3.2,0,6.2-1.2,8.5-3.5S24,15.2,24,12S22.8,5.8,20.5,3.5z M12,22.6c-2,0-3.9-0.5-5.5-1.6l-0.3-0.2L2,22l1.1-4.2L3,17.5
		c-1-1.7-1.6-3.6-1.6-5.5C1.4,6.2,6.2,1.4,12,1.4S22.6,6.2,22.6,12S17.8,22.6,12,22.6z"/>
	<rect x="11.3" y="16.6" width="1.4" height="1.4"/>
	<path d="M12,6c-1.9,0-3.5,1.6-3.5,3.5h1.4c0-1.2,0.9-2.1,2.1-2.1s2.1,0.9,2.1,2.1c0,0.5-0.2,1-0.5,1.4l-2.3,2.5v1.7h1.4V14l1.9-2.1
		c0.6-0.6,0.9-1.5,0.9-2.3C15.5,7.6,13.9,6,12,6z"/>
</g>
</svg>
