<?xml version="1.0" encoding="utf-8"?>
<!-- Generator: Adobe Illustrator 24.0.0, SVG Export Plug-In . SVG Version: 6.00 Build 0)  -->
<svg version="1.1" id="Ebene_1" xmlns="http://www.w3.org/2000/svg" xmlns:xlink="http://www.w3.org/1999/xlink" x="0px" y="0px"
	 viewBox="0 0 1105.75 620.56" style="enable-background:new 0 0 1105.75 620.56;" xml:space="preserve">
<style type="text/css">
	.st0{fill:#1D1D1B;}
</style>
<g id="simplified-e">
</g>
<g id="shops">
	<path class="st0" d="M459.62,459.08c5.28,2.7,13.39,5.41,21.75,5.41c9.01,0,13.77-3.73,13.77-9.4c0-5.41-4.12-8.5-14.55-12.23
		c-14.42-5.02-23.81-13-23.81-25.62c0-14.8,12.36-26.13,32.82-26.13c9.78,0,16.99,2.06,22.14,4.38l-4.38,15.83
		c-3.48-1.67-9.65-4.12-18.15-4.12s-12.61,3.86-12.61,8.37c0,5.53,4.89,7.98,16.09,12.23c15.32,5.66,22.53,13.64,22.53,25.87
		c0,14.55-11.2,26.9-35.01,26.9c-9.91,0-19.69-2.57-24.59-5.28L459.62,459.08z"/>
	<path class="st0" d="M545.6,392.53v33.34h32.31v-33.34h19.57v86.76h-19.57v-36.3H545.6v36.3h-19.69v-86.76H545.6z"/>
	<path class="st0" d="M692.13,435c0,28.45-17.25,45.7-42.61,45.7c-25.74,0-40.81-19.44-40.81-44.15c0-26,16.6-45.44,42.22-45.44
		C677.58,391.11,692.13,411.06,692.13,435z M629.44,436.16c0,16.99,7.98,28.96,21.11,28.96c13.26,0,20.85-12.61,20.85-29.48
		c0-15.58-7.47-28.96-20.98-28.96C637.16,406.68,629.44,419.3,629.44,436.16z"/>
	<path class="st0" d="M703.24,393.68c6.05-1.03,14.55-1.8,26.52-1.8c12.1,0,20.72,2.32,26.52,6.95c5.54,4.38,9.27,11.59,9.27,20.08
		s-2.83,15.7-7.98,20.6c-6.69,6.31-16.61,9.14-28.19,9.14c-2.57,0-4.89-0.13-6.69-0.39v31.02h-19.44V393.68z M722.68,433.07
		c1.67,0.39,3.73,0.51,6.56,0.51c10.43,0,16.86-5.28,16.86-14.16c0-7.98-5.53-12.74-15.32-12.74c-3.99,0-6.69,0.39-8.11,0.77V433.07
		z"/>
	<path class="st0" d="M775.78,459.08c5.28,2.7,13.39,5.41,21.75,5.41c9.01,0,13.77-3.73,13.77-9.4c0-5.41-4.12-8.5-14.55-12.23
		c-14.42-5.02-23.81-13-23.81-25.62c0-14.8,12.36-26.13,32.82-26.13c9.78,0,16.99,2.06,22.14,4.38l-4.38,15.83
		c-3.48-1.67-9.65-4.12-18.15-4.12s-12.61,3.86-12.61,8.37c0,5.53,4.89,7.98,16.09,12.23c15.32,5.66,22.53,13.64,22.53,25.87
		c0,14.55-11.2,26.9-35.01,26.9c-9.91,0-19.69-2.57-24.59-5.28L775.78,459.08z"/>
</g>
<g id="trusted">
	<path class="st0" d="M475.48,301.59h-23.42v-16.56h67.03v16.56h-23.81v70.66h-19.8V301.59z"/>
	<path class="st0" d="M526.58,286.19c6.34-1.04,15.79-1.81,26.27-1.81c12.94,0,22,1.94,28.21,6.86c5.18,4.14,8.02,10.22,8.02,18.25
		c0,11.13-7.89,18.76-15.4,21.48v0.39c6.08,2.46,9.45,8.28,11.65,16.31c2.72,9.84,5.44,21.22,7.12,24.59h-20.19
		c-1.42-2.46-3.49-9.58-6.08-20.32c-2.33-10.87-6.08-13.85-14.11-13.98h-5.95v34.29h-19.54V286.19z M546.12,323.72h7.76
		c9.84,0,15.66-4.92,15.66-12.55c0-8.02-5.44-12.04-14.49-12.16c-4.79,0-7.51,0.39-8.93,0.65V323.72z"/>
	<path class="st0" d="M620.28,285.02v50.21c0,15.01,5.69,22.65,15.79,22.65c10.35,0,16.05-7.25,16.05-22.65v-50.21h19.67v48.92
		c0,26.92-13.59,39.73-36.36,39.73c-22,0-34.94-12.16-34.94-39.99v-48.66H620.28z"/>
	<path class="st0" d="M685.86,351.93c5.31,2.72,13.46,5.44,21.87,5.44c9.06,0,13.85-3.75,13.85-9.45c0-5.44-4.14-8.54-14.62-12.29
		c-14.49-5.05-23.94-13.07-23.94-25.75c0-14.88,12.42-26.27,33-26.27c9.84,0,17.08,2.07,22.26,4.4l-4.4,15.92
		c-3.49-1.68-9.71-4.14-18.25-4.14c-8.54,0-12.68,3.88-12.68,8.41c0,5.56,4.92,8.02,16.18,12.29c15.4,5.69,22.65,13.72,22.65,26.01
		c0,14.62-11.26,27.05-35.2,27.05c-9.96,0-19.8-2.59-24.72-5.31L685.86,351.93z"/>
	<path class="st0" d="M769.07,301.59h-23.42v-16.56h67.03v16.56h-23.81v70.66h-19.8V301.59z"/>
	<path class="st0" d="M872.07,335.36h-32.09v20.71h35.85v16.18h-55.65v-87.22h53.83v16.18h-34.04v18.12h32.09V335.36z"/>
	<path class="st0" d="M888.06,286.19c7.25-1.16,16.69-1.81,26.66-1.81c16.56,0,27.31,2.98,35.72,9.32
		c9.06,6.73,14.75,17.47,14.75,32.87c0,16.69-6.08,28.21-14.49,35.33c-9.19,7.63-23.16,11.26-40.25,11.26
		c-10.22,0-17.47-0.65-22.39-1.29V286.19z M907.86,357.36c1.68,0.39,4.4,0.39,6.86,0.39c17.86,0.13,29.51-9.71,29.51-30.54
		c0.13-18.12-10.48-27.69-27.43-27.69c-4.4,0-7.25,0.39-8.93,0.78V357.36z"/>
</g>
<g id="simplified-e_1_">
	<path class="st0" d="M284.64,141.73c-78.28,0-141.73,63.45-141.73,141.73S206.36,425.2,284.64,425.2s141.73-63.46,141.73-141.73
		S362.92,141.73,284.64,141.73z M283.47,372.32c-49.32,0-89.31-39.98-89.31-89.31c0-49.32,39.99-89.31,89.31-89.31
		s89.31,39.99,89.31,89.31C372.78,332.33,332.79,372.32,283.47,372.32z"/>
	<path class="st0" d="M322.28,311.05c-12.99,19.2-31.06,36.71-55.34,36.71c-25.7,0-40.66-16.09-40.66-42.07
		c0-42.07,31.06-83.29,74.82-83.29c14.68,0,34.45,5.93,34.45,23.72c0,31.9-49.97,42.63-74.54,48.85
		c-0.85,5.37-1.69,10.73-1.69,16.09c0,11.01,5.93,21.18,18.07,21.18c15.81,0,28.52-15.25,37.83-26.54L322.28,311.05z M308.72,242.44
		c0-6.49-3.67-11.58-10.45-11.58c-20.33,0-30.78,39.53-34.73,55.06C282.47,280.28,308.72,264.75,308.72,242.44z"/>
</g>
</svg>
