<svg xmlns="http://www.w3.org/2000/svg" width="24" height="24" viewBox="0 0 24 24">
  <path fill="#758CA3" fill-rule="evenodd" d="M23.4568182,9.81818182 L12.275,9.81818182 L12.275,14.4545455 L18.7113636,14.4545455 C18.1113636,17.4 15.6022727,19.0909091 12.275,19.0909091 C8.34772727,19.0909091 5.18409091,15.9272727 5.18409091,12 C5.18409091,8.07272727 8.34772727,4.90909091 12.275,4.90909091 C13.9659091,4.90909091 15.4931818,5.50909091 16.6931818,6.49090909 L20.1840909,3 C18.0568182,1.14545455 15.3295455,-7.10542736e-15 12.275,-7.10542736e-15 C5.62045455,-7.10542736e-15 0.275,5.34545455 0.275,12 C0.275,18.6545455 5.62045455,24 12.275,24 C18.275,24 23.7295455,19.6363636 23.7295455,12 C23.7295455,11.2909091 23.6204545,10.5272727 23.4568182,9.81818182 Z"/>
</svg>
