<svg xmlns="http://www.w3.org/2000/svg" width="24" height="24" viewBox="0 0 24 24">
  <path fill="#758CA3" fill-rule="evenodd" d="M12.0589017,0 C14.0936355,0 16.7556061,0.543981867 18.3607585,2.09033032 C20.3245596,3.93402059 20.2109899,6.37058527 20.2008224,9.03280481 L20.200228,15.8602713 C20.200228,17.8290057 21.0139622,18.6921769 21.7782825,19.7521416 C22.0452766,20.1353288 22.1058483,20.5889137 21.7655305,20.8681044 C20.9103525,21.5880804 19.3912759,22.9112363 18.5568198,23.6576114 L18.5464589,23.6480117 C18.2706978,23.8976034 17.8698082,23.9144029 17.5589793,23.7456085 C16.1682192,22.5864471 15.9195561,22.051265 15.1608148,20.9473018 C12.8630718,23.2952235 11.2371975,24 8.26200699,24 C4.73927937,24 2,21.8176727 2,17.4546182 C2,14.0459318 3.83867254,11.7276091 6.46159032,10.590847 C8.73143834,9.5908803 11.9026902,9.40928636 14.3287497,9.13569548 L14.3287497,8.59011366 C14.3287497,7.590147 14.4068554,6.40938635 13.8202655,5.54541515 C13.3109843,4.77264091 12.3322717,4.45425152 11.4715147,4.45425152 C9.87592632,4.45425152 8.45647431,5.27422419 8.10898353,6.97576747 C8.03645679,7.35415486 7.76149275,7.72854238 7.38212209,7.74854172 L3.32700034,7.30695643 C2.98429154,7.22935902 2.60332688,6.95416819 2.70215453,6.42858571 C3.63384426,1.49115029 8.07630665,0 12.0589017,0 Z M14.3287497,12.5003833 C11.3025513,12.5003833 8.10499855,13.1499617 8.10499855,16.7266424 C8.10499855,18.5449818 9.04545524,19.7729409 10.6490136,19.7729409 C11.8237875,19.7729409 12.8814028,19.0449652 13.5460984,17.8642045 C14.2650895,16.590247 14.3250636,15.3879496 14.3288228,14.0107892 Z"/>
</svg>
