<svg enable-background="new 0 0 210 35" height="35" viewBox="0 0 210 35" width="210" xmlns="http://www.w3.org/2000/svg"><path d="m204.641 4.937c.744 0 1.461.187 2.152.559.686.375 1.223.911 1.615 1.609.393.697.592 1.427.592 2.19 0 .757-.195 1.482-.58 2.17-.387.688-.922 1.225-1.611 1.611-.688.383-1.41.575-2.168.575s-1.484-.192-2.17-.575c-.691-.386-1.227-.923-1.611-1.611-.385-.688-.578-1.413-.578-2.17 0-.763.199-1.493.592-2.191.393-.697.93-1.234 1.615-1.609.685-.373 1.404-.558 2.152-.558zm.004.852c-.6 0-1.172.151-1.725.451-.551.298-.98.729-1.299 1.291-.314.562-.473 1.148-.473 1.764 0 .612.152 1.194.465 1.747.309.553.74.986 1.291 1.297.557.311 1.139.468 1.742.468.613 0 1.191-.156 1.746-.468.551-.311.984-.745 1.291-1.297.312-.553.469-1.135.469-1.747 0-.616-.156-1.202-.473-1.764-.32-.562-.754-.993-1.303-1.291-.552-.301-1.13-.451-1.731-.451zm-2.157 5.998v-4.759h1.123c.879 0 1.373-.009 1.48-.002.307.027.551.083.723.178.176.097.316.242.432.443.117.198.176.417.176.66 0 .335-.113.619-.33.855-.215.237-.521.384-.92.441.145.054.248.11.324.173.078.063.182.18.316.356.031.045.145.314.34.643l.543 1.013h-1.156l-.389-.83c-.264-.506-.475-.933-.645-1.063-.172-.131-.389-.304-.65-.304h-.266v2.197zm1.102-2.928h.4c.541 0 .881.047 1.01.007.131-.044.236-.08.312-.185.072-.105.113-.206.113-.338 0-.129-.035-.235-.113-.334-.072-.102-.176-.156-.316-.201-.135-.043-.469-.048-1.006-.048h-.4z" fill="#999"/><path d="m51.977 4.26c0 .986-.319 1.769-.957 2.348-.637.58-1.391.87-2.26.87-.899 0-1.667-.291-2.304-.87-.637-.578-.956-1.362-.956-2.348 0-1.015.319-1.811.957-2.391.636-.579 1.404-.869 2.303-.869.87 0 1.623.29 2.26.869.638.58.957 1.378.957 2.391zm-.472 29.333h-5.339v-22.748h5.339z" fill="#a6ce38"/><path d="m54.523 11.652c1.16-.29 2.385-.566 4.009-.827 1.622-.261 3.446-.393 5.417-.393 1.855 0 3.419.255 4.666.761 1.246.508 2.245 1.218 2.984 2.131.738.914 1.227 2.015 1.531 3.305.304 1.289.423 2.705.423 4.238v12.725h-5.107v-11.898c0-1.217-.12-2.253-.281-3.107-.158-.854-.44-1.549-.803-2.087-.361-.537-.865-.928-1.487-1.174-.624-.247-1.39-.369-2.288-.369-.668 0-1.38.042-2.104.13-.725.087-1.164.158-1.626.217v18.289h-5.338v-21.94h.004z" fill="#a6ce38"/><g fill="#999"><path d="m81.575 33.593c-1.455-3.017-2.948-6.417-4.475-10.288-1.529-3.868-2.918-8.048-4.17-12.458h5.611c.32 1.393.691 2.68 1.113 4.142.421 1.464.873 2.945 1.353 4.408.482 1.463.976 2.894 1.484 4.268.509 1.378.982 2.621 1.42 3.723.435-1.102.901-2.338 1.396-3.714.494-1.377.983-2.797 1.462-4.262.479-1.463.939-2.96 1.376-4.425.436-1.464.813-2.748 1.135-4.141h5.435c-1.251 4.41-2.641 8.59-4.169 12.459-1.528 3.871-3.02 7.271-4.476 10.288z"/><path d="m115.568 11.652c.928-.29 2.342-.566 3.965-.827s3.424-.393 5.395-.393c1.855 0 3.406.255 4.654.761 1.246.508 2.24 1.218 2.98 2.131.738.914 1.268 2.015 1.572 3.305.307 1.289.465 2.705.465 4.238v12.725h-5.336v-11.898c0-1.217-.051-2.253-.209-3.107-.16-.854-.406-1.549-.768-2.087-.363-.537-.85-.928-1.471-1.174-.625-.247-1.381-.369-2.279-.369-.668 0-1.33.042-2.053.13-.727.087-1.346.158-1.578.217v18.289h-5.338v-21.941z"/><path d="m137.387 4.912 5.105-.868v6.802h8.127v4.41h-8.127v9.308c0 1.826.314 3.132.895 3.912.578.783 1.578 1.176 2.967 1.176.957 0 1.811-.101 2.549-.305.74-.202 1.33-.393 1.764-.565l.873 4.175c-.609.261-1.404.528-2.391.804-.986.276-2.145.413-3.48.413-1.619 0-2.977-.217-4.062-.651-1.088-.435-1.949-1.066-2.588-1.894-.637-.825-1.033-1.824-1.293-2.998-.262-1.175-.338-2.514-.338-4.022v-19.697z"/><path d="m158.105 4.26c0 .986-.32 1.769-.957 2.348-.637.58-1.391.87-2.26.87-.9 0-1.668-.291-2.307-.87-.637-.579-.957-1.362-.957-2.348 0-1.015.32-1.811.957-2.391.64-.579 1.407-.869 2.308-.869.869 0 1.623.29 2.26.869.636.58.956 1.378.956 2.391zm-.525 29.333h-5.34v-22.748h5.34z"/><path d="m167.486 33.593c-1.453-3.017-2.947-6.417-4.477-10.288-1.527-3.868-2.916-8.048-4.168-12.458h5.613c.318 1.393.689 2.68 1.109 4.142.424 1.464.875 2.945 1.355 4.408s.973 2.894 1.482 4.268c.51 1.378.984 2.621 1.42 3.723.436-1.102.902-2.338 1.396-3.714.496-1.377.984-2.797 1.463-4.262.479-1.463.939-2.96 1.373-4.425.438-1.464.814-2.748 1.137-4.141h5.436c-1.248 4.41-2.641 8.59-4.17 12.459-1.525 3.871-3.018 7.271-4.473 10.288z"/><path d="m201.582 22.261c0 1.796-.26 3.435-.783 4.912-.523 1.479-1.26 2.74-2.215 3.783-.959 1.043-2.113 1.854-3.459 2.435-1.348.579-2.832.869-4.455.869-1.625 0-3.104-.29-4.434-.869-1.336-.581-2.479-1.392-3.438-2.435-.957-1.043-1.703-2.305-2.236-3.783-.539-1.479-.807-3.116-.807-4.912s.268-3.427.807-4.892c.535-1.464 1.287-2.718 2.26-3.761.969-1.044 2.123-1.848 3.457-2.414 1.334-.564 2.797-.846 4.391-.846 1.592 0 3.064.281 4.414.846 1.346.565 2.498 1.37 3.457 2.414.955 1.043 1.701 2.296 2.238 3.761.535 1.465.803 3.095.803 4.892zm-5.391 0c0-2.262-.486-4.051-1.457-5.37-.971-1.318-2.326-1.978-4.064-1.978-1.74 0-3.096.66-4.064 1.978-.973 1.319-1.459 3.108-1.459 5.37 0 2.29.486 4.103 1.459 5.434.969 1.334 2.324 2.001 4.064 2.001 1.738 0 3.094-.666 4.064-2.001.971-1.332 1.457-3.144 1.457-5.434z"/></g><path d="m35.221 18.443c.548-.842.864-1.833.864-2.91 0-2.972-2.424-5.397-5.398-5.397-1.349 0-2.572.485-3.5 1.307-1.623-3.943-5.481-6.705-9.994-6.705-5.966 0-10.795 4.828-10.795 10.795 0 .295.021.613.042.907-3.204 1.497-5.44 4.581-5.44 8.354 0 5.208 4.239 9.263 9.446 9.263h18.776l11.499-11.337c-1.04-2.218-3.059-3.702-5.5-4.277z" fill="#a6ce38"/><path d="m29.223 34.057v-4.201c0-4.47 3.888-8.098 8.357-8.098 1.225 0 2.1.473 3.141.961z" fill="#cfed62"/><path d="m15.296 25.923-7.892-3.604v-1.177l7.892-4.083v1.975l-5.294 2.609 5.294 2.313z" fill="#fff"/><path d="m22.887 15.487-4.487 12.071h-2.28l4.487-12.07h2.28z" fill="#fff"/><path d="m23.652 23.957 5.293-2.313-5.293-2.609v-1.975l7.892 4.083v1.177l-7.892 3.604z" fill="#fff"/><path d="m111.396 13.53c-1.716-1.899-4.105-2.85-7.167-2.85-1.304 0-2.58.249-3.827.745-1.248.496-2.354 1.232-3.318 2.211s-1.737 2.205-2.317 3.679c-.582 1.473-.873 3.188-.873 5.145 0 1.673.228 3.211.681 4.614.454 1.402 1.148 2.623 2.085 3.656.936 1.036 2.125 1.845 3.572 2.425 1.446.581 3.146.873 5.103.873.766 0 1.515-.043 2.253-.128.737-.087 1.424-.192 2.063-.32.638-.127 1.204-.269 1.701-.427.497-.155.885-.303 1.17-.443l-.68-4.211c-.595.255-1.411.496-2.447.722-1.036.229-2.175.341-3.423.341-2.126 0-3.749-.489-4.869-1.467-1.12-.979-1.75-2.36-1.892-4.146 0 0-.122-1.059-.122-1.944s.163-1.84.163-1.84c.085-.653.242-1.291.469-1.914.226-.624.544-1.176.957-1.659.41-.481.913-.872 1.508-1.169.596-.298 1.291-.446 2.084-.446.767 0 1.426.134 1.978.404.553.269 1.021.637 1.403 1.104.383.469.674 1.006.871 1.644.199.638.297 1.307.297 2.003h-7.643v3.946h12.704c.028-.231.051-.781.065-1.137.012-.356.02-.646.02-.932.002-3.771-.856-6.58-2.569-8.479z" fill="#999"/></svg>