<?xml version="1.0" encoding="utf-8"?>
<!-- Generator: Adobe Illustrator 24.2.1, SVG Export Plug-In . SVG Version: 6.00 Build 0)  -->
<svg version="1.1" id="Ebene_1" xmlns="http://www.w3.org/2000/svg" xmlns:xlink="http://www.w3.org/1999/xlink" x="0px" y="0px"
	 width="35px" height="37px" viewBox="0 0 35 37" style="enable-background:new 0 0 35 37;" xml:space="preserve">
<style type="text/css">
	.st0{fill:#96694C;}
</style>
<g>
	<path class="st0" d="M4.9,32c-0.1-0.6-0.3-1-1.3-2c-0.7-0.7-0.9-1-1-1.4c-0.1-0.3,0.1-0.5,0.3-0.5c0.4-0.1,0.8,0.1,1.3,0.4
		c0.2-0.1,0.3-0.5,0.3-0.9c-0.1-0.6-0.6-1.1-1.7-0.9c-1.2,0.2-1.9,1.5-1.7,2.6c0.1,0.6,0.4,1.1,1,1.7c1.1,1,1.2,1.2,1.3,1.6
		c0.1,0.5-0.1,0.9-0.5,1c-0.7,0.1-1.4-0.4-1.6-1.7l0-0.2c-0.1-0.1-0.3-0.1-0.4-0.1c-0.7,0.1-0.9,1-0.8,1.7c0.2,1.1,1.1,1.8,2.6,1.6
		C4.3,34.6,5.1,33.1,4.9,32z"/>
	<path class="st0" d="M2.7,26.3c0.3,0,0.5-0.1,0.7,0v-3.2l0.9-1.8l2.2,5.3h1.9c0.1-0.6,0.3-1,0.5-1.2l-3.1-6.2l3.4-6.6H6.4l-2.9,6.4
		v-6.4H0.8v13.9h1C2.1,26.4,2.4,26.3,2.7,26.3z"/>
	<path class="st0" d="M8.8,27.8c0,0.8,0,1.9,0.1,3.1c-0.1,0.4-0.1,0.9-0.1,1.2c0.1,0.5,0.6,0.8,1.2,0.7c0.2,0,0.3-0.1,0.3-0.2
		c-0.1-0.7-0.2-1.8-0.2-2.4c0.2-0.3,0.4-0.4,0.6-0.4c0.1,0,0.2,0.1,0.2,0.1c0,0.2-0.3,1.4-0.2,2.1c0.1,0.5,0.3,0.8,0.9,0.7
		c0.5-0.1,1.2-0.8,1.7-1.5c0.1,0.6,0.6,1,1.1,0.9c0.2,0,0.3-0.1,0.4-0.2c-0.1-0.7-0.1-1.2-0.1-2c0.3-0.6,0.5-0.8,0.6-0.8
		c0.1,0,0.1,0,0.1,0.1c0,0.1,0,0.3-0.1,0.6c-0.1,0.5-0.1,1.1-0.1,1.5c0.1,0.6,0.5,0.7,1.1,0.6c0.2,0,0.3-0.1,0.4-0.2
		c-0.1-0.7-0.1-1.2-0.1-2c0.3-0.6,0.6-0.9,0.7-0.9c0.1,0,0.1,0,0.1,0.1c0,0.2-0.3,1.5-0.2,2.1c0.1,0.5,0.3,0.8,0.9,0.7
		c0.5-0.1,1.2-0.8,1.7-1.5c0.3,0.7,0.8,1,1.5,0.8c0.7-0.1,1.4-0.7,1.9-1.4c0,0.1,0,0.2,0,0.3c0.1,0.5,0.3,0.7,0.9,0.6
		c0.6-0.1,1.4-0.9,1.8-1.7c0,0,0,0,0.1,0c1.2,1.4,1.4,1.6,2.2,1.5c0.6-0.1,1.4-0.9,1.3-1.5c0-0.2-0.2-0.4-0.3-0.4
		c-0.4,0.3-0.6,0.4-0.7,0.4c-0.1,0-0.2,0-0.4-0.2c-0.1-0.1-0.3-0.3-0.5-0.5c0.4-0.3,0.7-0.6,1-1.2c0.6-0.4,0.9-1,0.8-1.4
		C29.3,25.2,29,25,28.7,25c-0.1,0-0.2,0.2-0.4,0.5c-1-0.4-1.2-0.4-1.6-0.3c-0.5,0.1-0.9,0.8-0.8,1.2c0.1,0.3,0.2,0.4,0.4,0.5
		c0.1-0.1,0.3-0.2,0.5-0.2c0.2,0,0.4,0.1,0.9,0.2c0,0-0.3,0.5-0.7,0.8c-0.2-0.2-0.6-0.4-0.6-0.4c-0.5,0.2-0.8,0.6-0.8,1
		c-0.3,0.5-0.6,0.8-0.8,0.9c-0.1,0-0.1,0-0.2-0.1c0-0.2,0.1-2,0.2-3c0.5-1.5,0.6-2,0.5-2.4c-0.1-0.5-0.4-0.6-0.8-0.6
		c-0.8,0.1-1.3,1-1.3,2.4c0,0.7,0,1.6,0,2.3c0,0.1,0,0.4,0,0.6c-0.4,0.8-1.1,1.4-1.7,1.5C21.2,29.7,21,29.5,21,29
		c1.3-0.5,1.6-1.3,1.5-2.1c-0.1-0.7-0.5-0.9-1.2-0.8c-0.9,0.2-1.7,1.6-1.7,2.9c-0.4,0.7-0.8,1.2-0.9,1.2c-0.1,0-0.1,0-0.2-0.1
		c0-0.2,0.2-1.2,0.3-1.6c0.1-0.4,0.1-0.8,0.1-1.1c-0.1-0.4-0.3-0.7-0.8-0.6c-0.4,0.1-0.9,0.6-1.5,1.9c0.2-0.5,0.1-0.7,0.1-1
		c-0.1-0.3-0.3-0.5-0.7-0.5c-0.4,0.1-0.9,0.4-1.4,1.8c0.1-0.6,0.2-0.9,0.1-1.2c-0.1-0.3-0.2-0.4-0.5-0.3c-0.6,0.1-1.3,1-1.2,1.5
		c0,0.2,0.1,0.4,0.2,0.6c-0.5,1-1,1.5-1.1,1.6c-0.1,0-0.1,0-0.2-0.1c0-0.2,0.1-1.1,0.2-1.5c0.1-0.4,0.1-0.7,0.1-1
		c-0.1-0.3-0.3-0.5-0.7-0.5c-0.4,0.1-1,0.6-1.6,1.3c0-0.7-0.1-1.4,0-2c0.7-0.8,0.9-1.1,0.8-1.5c-0.1-0.4-0.6-0.6-1.1-0.6
		c-0.5,0.1-0.8,0.5-0.9,1.4C8.9,27,8.8,27.5,8.8,27.8z M21.2,27.2c0.1,0,0.2,0.1,0.3,0.3c0.1,0.3,0,0.6-0.5,0.8
		C20.8,27.6,21,27.2,21.2,27.2z"/>
	<path class="st0" d="M7.5,30.4c0.5-0.1,0.6-0.8,0.6-1.2C8,28.8,7.6,28.6,7,28.8c-0.2,0.1-0.6,0.3-0.7,0.4C5.6,29.9,5.1,31,5.3,32
		c0.2,1,0.7,1.6,1.6,1.5c1-0.2,1.6-1.6,1.6-2c0-0.2-0.2-0.3-0.4-0.3c-0.4,0.7-0.6,0.9-0.8,1c-0.3,0.1-0.5-0.2-0.6-0.7
		c-0.1-0.5,0-1,0.1-1.4C7,30.3,7.3,30.5,7.5,30.4z"/>
	<path class="st0" d="M33.8,26.4C33.8,26.4,33.8,26.4,33.8,26.4c0-0.2-0.2-0.4-0.4-0.3c-0.4,0.9-1.2,1.7-1.8,1.8
		c-0.4,0.1-0.5-0.2-0.6-0.6c1.3-0.5,1.6-1.3,1.5-2.1c-0.1-0.7-0.5-0.9-1.2-0.8c-0.9,0.2-1.9,1.9-1.6,3.4c0.2,1.1,0.7,1.6,1.7,1.4
		c0.7-0.1,1.5-0.8,2-1.5c-0.4,1.2-1.6,2.2-2.9,2.6c-2.1,0.7-5.5,0.9-11.9,1.8C8.1,33.7,3.8,35,3.5,36.4c-0.2,1.1,4.3-0.9,5.8-1.3
		c2.5-0.7,2,0.4,3.1,0.1c1.5-0.3,2.6-1.6,4.5-2c4.3-0.8,11.7-1.7,13.6-2.4C33.2,30,34.2,27.6,33.8,26.4z M31.2,25.5
		c0.1,0,0.2,0.1,0.3,0.3c0.1,0.3,0,0.6-0.5,0.8C30.9,25.9,31.1,25.5,31.2,25.5z"/>
	<path class="st0" d="M25,17c0-2.5-1.6-4.3-3.8-4.3h-3.9v13.9h0.2c0.2-0.1,0.3-0.2,0.5-0.2c0.1,0,0.1,0,0.2,0c0.3,0,0.5,0.1,0.7,0.2
		h1c0,0,0-0.1,0.1-0.1v-5h0.9l1.2,4.2c0.3,0.1,0.6,0.3,0.8,0.7c0-0.4,0-0.8,0-1.1c-0.1-1.2,0.3-2.2,1-2.6l-0.6-1.8
		C24,20.4,25,19.4,25,17z M20.8,19.2h-0.9V15h0.9c1,0,1.5,0.8,1.5,2.1C22.3,18.3,21.8,19.2,20.8,19.2z"/>
	<path class="st0" d="M31.4,12.7v7.1l-2.7-7.1h-2.6v12.3c0.2-0.1,0.4-0.2,0.6-0.3c0.1,0,0.2,0,0.4,0c0.3,0,0.6,0.1,1.1,0.3
		c0.1-0.2,0.3-0.3,0.5-0.3c0,0,0,0,0.1,0v-5.3l1.9,4.9c0.2-0.1,0.4-0.2,0.6-0.2c0.1,0,0.3,0,0.4,0c0.7,0,1.2,0.5,1.4,1.2
		c0.1,0.3,0.1,0.6,0,0.8c0,0,0.1-0.3,0.1-0.3l0.3,0c0,0,0.1,0,0.1,0c0.2,0,0.4,0.1,0.5,0.2V12.7H31.4z"/>
	<path class="st0" d="M16.1,15v-2.3H10v12.2c0.6,0,1.2,0.4,1.3,1c0,0.3,0,0.5-0.1,0.7h4.9v-2.3h-3.5v-3.6H16v-2.3h-3.3V15H16.1z"/>
	<path class="st0" d="M17.4,9.3c4.1,0,7.4,1.8,7.4-2.1c0-4-3.3-7.2-7.4-7.2C13.3,0,10,3.2,10,7.2C10,11.1,13.3,9.3,17.4,9.3z
		 M13.2,5.1c1.3-0.5,2.3-0.5,2.5-1.2c0.2-1-1.5-0.7-2.5-0.3c-0.5,0.2-0.9,0.4-1.1,0.5c0.6-0.9,1.6-2,3.5-2.4l0,0
		c0.3-0.1,1-0.1,0.9-0.3c-0.1-0.1-0.2-0.4-0.1-0.8c0.2,0.2,0.8,0.7,1.5,0.8c0.2,0,0.4,0.1,0.6,0.1c0,0,0,0,0.1,0c0.1,0,0.1,0,0.2,0
		l0,0c2.3,0.3,3.4,1.6,4.1,2.5c-0.2-0.1-0.6-0.3-1.1-0.5c-1-0.4-2.8-0.7-2.5,0.3c0.2,0.7,1.2,0.7,2.5,1.2c1,0.4,1.8,1,2,1.6
		c0,3.2-2.4,1.4-6.1,1.4h0c-3.8,0-6.1,1.8-6.1-1.4C11.4,6.1,12.2,5.5,13.2,5.1z"/>
	<path class="st0" d="M17.4,5.6L17.4,5.6c0.3,0,0.9-0.1,1.1-0.4c0.2-0.3,0-0.6-0.3-0.6c-0.2,0-0.5,0.1-0.8,0.1h0
		c-0.3,0-0.6-0.1-0.8-0.1c-0.3,0-0.5,0.3-0.3,0.6C16.5,5.5,17.1,5.6,17.4,5.6z"/>
	<path class="st0" d="M17.4,6.5L17.4,6.5c1,0,2.8-0.3,3.5-0.9c0,0,0-0.1,0,0c-1.1,0.6-2.6,0.7-3.4,0.7h0c-0.8,0-2.3-0.1-3.4-0.7
		c-0.1,0-0.1,0,0,0C14.6,6.3,16.4,6.5,17.4,6.5z"/>
	<path class="st0" d="M33.5,29.9c-0.3,0-0.5,0.2-0.5,0.5c0,0.3,0.2,0.5,0.5,0.5c0.3,0,0.5-0.2,0.5-0.5C34,30.1,33.8,29.9,33.5,29.9z
		 M33.5,30.7c-0.2,0-0.4-0.2-0.4-0.4c0-0.2,0.2-0.4,0.4-0.4c0.2,0,0.4,0.2,0.4,0.4C33.9,30.5,33.8,30.7,33.5,30.7z"/>
	<path class="st0" d="M33.7,30.2c0-0.1-0.1-0.2-0.2-0.2h-0.2v0.5h0.1v-0.2h0.1l0.1,0.2h0.1l-0.1-0.2C33.7,30.3,33.7,30.3,33.7,30.2z
		 M33.5,30.3v-0.2h0.1c0,0,0.1,0,0.1,0.1C33.6,30.3,33.6,30.3,33.5,30.3L33.5,30.3z"/>
</g>
</svg>
